<?xml version="1.0" encoding="UTF-8" standalone="no"?>
<!DOCTYPE svg PUBLIC "-//W3C//DTD SVG 1.1//EN" "http://www.w3.org/Graphics/SVG/1.1/DTD/svg11.dtd">
<svg width="100%" height="100%" viewBox="0 0 3781 1971" version="1.1" xmlns="http://www.w3.org/2000/svg" xmlns:xlink="http://www.w3.org/1999/xlink" xml:space="preserve" xmlns:serif="http://www.serif.com/" style="fill-rule:evenodd;clip-rule:evenodd;stroke-linejoin:round;stroke-miterlimit:2;">
    <g transform="matrix(1,0,0,1,-300,-300)">
        <g transform="matrix(1,0,0,1,-48.0835,0)">
            <g transform="matrix(2.9335e-17,0.474532,-0.479077,2.90567e-17,3476.34,249.089)">
                <path d="M1099.83,1050L1074.63,945.421L975,974.982L1049.35,900.018L975,824.923L1074.63,854.497L1099.83,750L1125.06,854.497L1224.74,824.923L1150.34,900.018L1224.74,974.982L1125.06,945.421L1099.83,1050ZM1649.83,1050L1624.63,945.421L1525,974.982L1599.35,900.018L1525,824.923L1624.63,854.497L1649.83,750L1675.06,854.497L1774.74,824.923L1700.34,900.018L1774.74,974.982L1675.06,945.421L1649.83,1050ZM2199.83,1050L2174.63,945.421L2075,974.982L2149.35,900.018L2075,824.923L2174.63,854.497L2199.83,750L2225.06,854.497L2324.74,824.923L2250.34,900.018L2324.74,974.982L2225.06,945.421L2199.83,1050ZM2749.83,1050L2724.63,945.421L2625,974.982L2699.35,900.018L2625,824.923L2724.63,854.497L2749.83,750L2775.06,854.497L2874.74,824.923L2800.34,900.018L2874.74,974.982L2775.06,945.421L2749.83,1050Z" style="fill:rgb(16,89,128);fill-rule:nonzero;"/>
            </g>
            <g transform="matrix(1,0,0,1,33.8579,0)">
                <path d="M2950.79,1700.78L3071.83,1700.78L3071.83,2025L2950.79,2025L2950.79,1700.78ZM3071.83,624.222L2950.79,624.222L2950.79,300L3071.83,300L3071.83,624.222Z" style="fill:rgb(16,89,128);"/>
            </g>
        </g>
        <g transform="matrix(-1.1456,1.40295e-16,-1.37373e-16,-1.12173,4424.15,3194.58)">
            <rect x="300" y="823.884" width="3300" height="151.116" style="fill:rgb(16,89,128);"/>
        </g>
        <g transform="matrix(1.40057,0,0,1.40057,-440.807,-1353.5)">
            <text x="1131.42px" y="2562.34px" style="font-family:'AvenirNext-Heavy', 'Avenir Next', sans-serif;font-weight:900;font-size:100px;fill:white;">C<tspan x="1241.02px 1361.22px 1438.42px 1546.82px 1662.62px 1778.82px 1904.32px 2045.12px 2185.92px 2303.52px 2379.52px 2487.92px 2613.42px " y="2562.34px 2562.34px 2562.34px 2562.34px 2562.34px 2562.34px 2562.34px 2562.34px 2562.34px 2562.34px 2562.34px 2562.34px 2562.34px ">HICAGOMMA.COM</tspan></text>
        </g>
        <g transform="matrix(1,0,0,1,-62.0501,0)">
            <g transform="matrix(1.41133,0,0,1.41133,-1269.91,-3314.14)">
                <path d="M3773.15,3411.03C3773.15,3414.85 3773.19,3411.03 3773.19,3411.03C3804.32,3411.13 3834.51,3435.51 3834.86,3467.76C3835.15,3553.69 3834.86,3639.62 3834.86,3725.55C3834.79,3748.86 3818,3770.5 3795.76,3778.65C3788.66,3781.25 3781.08,3782.57 3773.54,3782.63C3582.94,3783.21 3392.33,3783.21 3201.73,3782.63C3172.77,3782.39 3143.9,3761.33 3140.7,3731.1C3140.52,3729.37 3140.43,3727.64 3140.41,3725.9C3140.12,3639.98 3140.41,3554.05 3140.41,3468.12C3140.49,3444.66 3157.47,3422.95 3179.86,3414.89C3186.97,3412.33 3194.52,3411.06 3202.1,3411.03L3773.15,3411.03Z" style="fill:white;"/>
                <path d="M3813.71,3725.64C3813.71,3744.95 3797.43,3760.75 3776.17,3760.75L3200.59,3760.75C3179.33,3760.75 3161.94,3744.95 3161.94,3725.64L3161.94,3467.77C3161.94,3448.46 3179.33,3432.66 3200.59,3432.66L3776.17,3432.66C3797.43,3432.66 3813.71,3448.46 3813.71,3467.77L3813.71,3725.64ZM3773.15,3422.49L3202.12,3422.49C3174.48,3422.49 3151.87,3443.03 3151.87,3468.14L3151.87,3725.53C3151.87,3750.63 3174.48,3771.17 3202.12,3771.17L3773.15,3771.17C3800.79,3771.17 3823.41,3750.63 3823.41,3725.53L3823.41,3468.14C3823.41,3443.03 3800.79,3422.49 3773.15,3422.49M3767.17,3537.36L3782,3516.78C3782,3516.78 3770.24,3462.39 3736.1,3501.79C3726.5,3512.88 3719.62,3545.69 3719.32,3565.06C3718.86,3594.24 3727.88,3617.96 3732.88,3628.81C3735.56,3634.62 3739.49,3639.93 3744.65,3644.14C3753.39,3651.25 3767.06,3656.62 3776.97,3633.52C3778.5,3629.98 3779.64,3626.32 3780.51,3622.59C3783.13,3611.27 3789.63,3579.38 3786.47,3553.12L3752.61,3556.43L3752.61,3588.95L3769.96,3589.46C3769.96,3589.46 3766.33,3624.03 3752.05,3617.67C3741.84,3613.12 3738.51,3590.93 3737.43,3578.69C3736.98,3573.47 3737.33,3560.6 3738.07,3555.41C3740.86,3535.59 3754.29,3503.56 3767.17,3537.36M3646.57,3623.26L3663.63,3626.57L3662.8,3551.09L3691.62,3631.4L3708.68,3635.21L3708.68,3503.56L3691.9,3507.38L3693.3,3592.26C3691.9,3579.3 3663.63,3513.22 3663.63,3513.22L3646.57,3516.27L3646.57,3623.26ZM3602.35,3598.61C3611.47,3598.61 3618.87,3586.04 3618.87,3570.53C3618.87,3555.02 3611.47,3542.45 3602.35,3542.45C3593.24,3542.45 3585.85,3555.02 3585.85,3570.53C3585.85,3586.04 3593.24,3598.61 3602.35,3598.61M3603.34,3520.59C3621.8,3520.59 3636.77,3542.95 3636.77,3570.53C3636.77,3598.11 3621.8,3620.47 3603.34,3620.47C3584.87,3620.47 3569.9,3598.11 3569.9,3570.53C3569.9,3542.95 3584.87,3520.59 3603.34,3520.59M3494.63,3577.18C3496.46,3564.05 3493.23,3556.51 3493.23,3556.51C3493.23,3556.51 3490.89,3549.1 3484.05,3547.43L3473.01,3546.73L3473.01,3592.26L3484.19,3591.56C3484.19,3591.56 3492.8,3590.3 3494.63,3577.18M3508.06,3546.51C3508.06,3546.51 3516.46,3560.24 3511.7,3584.12C3506.94,3608.01 3484.56,3610.3 3484.56,3610.3L3455.46,3611.57L3455.46,3528.72L3484.18,3529.99C3501.99,3533.05 3508.06,3546.51 3508.06,3546.51M3412.78,3595.56C3421.98,3595.56 3429.43,3584.04 3429.43,3569.83C3429.43,3555.62 3421.98,3544.1 3412.78,3544.1C3403.59,3544.1 3396.14,3555.62 3396.14,3569.83C3396.14,3584.04 3403.59,3595.56 3412.78,3595.56M3412.23,3524.66C3431,3524.66 3446.22,3544.97 3446.22,3570.02C3446.22,3595.08 3431,3615.38 3412.23,3615.38C3393.45,3615.38 3378.23,3595.08 3378.23,3570.02C3378.23,3544.97 3393.45,3524.66 3412.23,3524.66M3518.69,3548.04L3532.68,3548.55L3532.68,3611.57L3550.04,3612.85L3550.32,3547.28L3564.58,3547.28L3564.58,3526.18C3561.22,3526.69 3518.69,3528.72 3518.69,3528.72L3518.69,3548.04ZM3344.93,3574.21L3344.93,3620.47L3361.44,3618.18L3362,3573.2L3382.99,3523.64L3363.68,3521.61L3353.05,3552.36L3342.41,3518.3L3322.55,3515L3344.93,3574.21ZM3272.74,3535.33L3287.57,3537.36L3287.29,3628.85L3304.64,3625.04L3304.92,3538.63L3318.35,3540.16L3318.35,3514.24C3295.97,3510.93 3272.74,3504.58 3272.74,3504.58L3272.74,3535.33ZM3246.72,3638.26L3264.35,3633.43L3264.35,3502.8L3246.72,3497.72L3246.72,3638.26ZM3229.47,3532.11C3229.47,3532.11 3221.93,3517.43 3216.6,3518.22C3208.57,3519.41 3210.83,3535.22 3212.58,3539.14C3216.56,3548.03 3221.77,3549.86 3225.8,3554.99C3229.26,3559.39 3234.31,3561.93 3236.13,3575.03C3243.95,3631.28 3224.86,3646.21 3213.43,3651.73C3204.71,3655.93 3197.19,3643.35 3193.76,3636.24C3192.43,3633.48 3192.08,3630.41 3192.75,3627.45L3199.62,3596.83C3202.45,3609.14 3206.53,3614.57 3209.66,3616.97C3212.13,3618.86 3215.85,3618.26 3217.58,3615.79C3220.92,3610.99 3225.44,3599.55 3219.3,3587.94C3217.25,3584.07 3212.57,3581.68 3208.2,3577.52C3198.59,3568.34 3195.51,3555.12 3194.39,3541.94C3193.51,3531.39 3193.47,3517.9 3198.13,3501.28C3206.24,3472.32 3222.69,3488.27 3230.61,3498.37C3233.51,3502.08 3234.65,3506.68 3233.74,3511.16L3229.47,3532.11M3559.24,3494.53L3575.35,3494.53L3575.35,3490.76L3564.19,3490.76L3564.19,3469.87L3559.24,3469.87L3559.24,3494.53ZM3534.78,3484.13L3536.87,3478.06C3537.35,3476.6 3537.76,3474.88 3538.16,3473.45L3538.24,3473.45C3538.64,3474.88 3539.09,3476.56 3539.61,3478.06L3541.75,3484.13L3534.78,3484.13ZM3542.6,3487.54L3545.05,3494.53L3550.37,3494.53L3541.55,3469.87L3535.22,3469.87L3526.52,3494.53L3531.64,3494.53L3533.97,3487.54L3542.6,3487.54ZM3513.02,3494.53L3517.98,3494.53L3517.98,3469.87L3513.02,3469.87L3513.02,3494.53ZM3504.48,3490.25C3503.19,3490.79 3501.09,3491.16 3499.08,3491.16C3493.11,3491.16 3489.61,3487.68 3489.61,3482.27C3489.61,3476.34 3493.6,3473.2 3499.12,3473.2C3501.37,3473.2 3503.15,3473.63 3504.44,3474.14L3505.52,3470.56C3504.51,3470.08 3502.18,3469.46 3498.92,3469.46C3490.61,3469.46 3484.41,3474.36 3484.41,3482.49C3484.41,3489.99 3489.65,3494.93 3498.27,3494.93C3501.53,3494.93 3504.11,3494.35 3505.28,3493.8L3504.48,3490.25ZM3471.72,3494.53L3476.67,3494.53L3476.67,3469.87L3471.72,3469.87L3471.72,3494.53ZM3446.78,3494.53L3451.74,3494.53L3451.74,3484.06L3461.73,3484.06L3461.73,3480.36L3451.74,3480.36L3451.74,3473.56L3462.45,3473.56L3462.45,3469.87L3446.78,3469.87L3446.78,3494.53ZM3421.6,3494.53L3426.55,3494.53L3426.55,3484.06L3436.55,3484.06L3436.55,3480.36L3426.55,3480.36L3426.55,3473.56L3437.27,3473.56L3437.27,3469.87L3421.6,3469.87L3421.6,3494.53ZM3400.92,3473.05C3405.88,3473.05 3408.42,3477.47 3408.42,3482.12C3408.42,3487.28 3405.72,3491.34 3400.92,3491.34C3396.17,3491.34 3393.39,3487.32 3393.39,3482.31C3393.39,3477.22 3396.01,3473.05 3400.92,3473.05M3401.05,3469.46C3393.39,3469.46 3388.16,3474.8 3388.16,3482.38C3388.16,3489.62 3392.99,3494.93 3400.64,3494.93C3408.14,3494.93 3413.66,3490.21 3413.66,3481.94C3413.66,3474.91 3408.98,3469.46 3401.05,3469.46M3174.62,3455.7C3174.62,3455.7 3178.72,3442.83 3199.81,3439.27L3778.64,3439.44C3778.64,3439.44 3794.31,3441.13 3801.58,3455.7C3801.58,3455.7 3671.56,3519.41 3490.43,3519.41C3311.92,3519.41 3174.62,3455.7 3174.62,3455.7M3585.5,3659.34L3575.26,3659.34L3575.26,3666.59L3586.71,3666.59L3586.71,3670.28L3570.31,3670.28L3570.31,3645.61L3586.1,3645.61L3586.1,3649.31L3575.26,3649.31L3575.26,3655.68L3585.5,3655.68L3585.5,3659.34ZM3550.23,3649.39L3542.5,3649.39L3542.5,3645.61L3563.01,3645.61L3563.01,3649.39L3555.19,3649.39L3555.19,3670.28L3550.23,3670.28L3550.23,3649.39ZM3531.77,3659.89L3529.63,3653.81C3529.11,3652.31 3528.67,3650.63 3528.26,3649.2L3528.18,3649.2C3527.78,3650.63 3527.38,3652.35 3526.89,3653.81L3524.8,3659.89L3531.77,3659.89ZM3523.99,3663.29L3521.66,3670.28L3516.53,3670.28L3525.24,3645.61L3531.57,3645.61L3540.39,3670.28L3535.08,3670.28L3532.62,3663.29L3523.99,3663.29ZM3508.76,3670.28L3503.8,3670.28L3503.8,3645.61L3508.76,3645.61L3508.76,3670.28ZM3479.82,3645.61L3484.77,3645.61L3484.77,3666.51L3495.93,3666.51L3495.93,3670.28L3479.82,3670.28L3479.82,3645.61ZM3470.02,3670.28L3465.06,3670.28L3465.06,3645.61L3470.02,3645.61L3470.02,3670.28ZM3440.44,3645.61L3456.11,3645.61L3456.11,3649.31L3445.39,3649.31L3445.39,3656.12L3455.39,3656.12L3455.39,3659.82L3445.39,3659.82L3445.39,3670.28L3440.44,3670.28L3440.44,3645.61ZM3415.81,3645.61L3431.49,3645.61L3431.49,3649.31L3420.77,3649.31L3420.77,3656.12L3430.76,3656.12L3430.76,3659.82L3420.77,3659.82L3420.77,3670.28L3415.81,3670.28L3415.81,3645.61ZM3399.28,3659.89L3397.14,3653.81C3396.62,3652.31 3396.18,3650.63 3395.78,3649.2L3395.7,3649.2C3395.29,3650.63 3394.89,3652.35 3394.41,3653.81L3392.31,3659.89L3399.28,3659.89ZM3391.51,3663.29L3389.17,3670.28L3384.05,3670.28L3392.75,3645.61L3399.08,3645.61L3407.91,3670.28L3402.59,3670.28L3400.13,3663.29L3391.51,3663.29ZM3762.26,3694L3765.94,3707.76L3777.86,3707.76L3768.22,3714.5L3771.9,3725.41L3762.26,3718.67L3752.62,3725.41L3756.3,3714.5L3746.66,3707.76L3758.58,3707.76L3762.26,3694ZM3581.6,3694L3585.28,3707.76L3597.21,3707.76L3587.56,3714.5L3591.24,3725.41L3581.6,3718.67L3571.96,3725.41L3575.64,3714.5L3565.99,3707.76L3577.92,3707.76L3581.6,3694ZM3219.4,3694L3223.08,3707.76L3235,3707.76L3225.36,3714.5L3229.04,3725.41L3219.4,3718.67L3209.75,3725.41L3213.43,3714.5L3203.79,3707.76L3215.71,3707.76L3219.4,3694ZM3724.87,3702.03L3720.09,3714.3L3729.68,3714.3L3724.87,3702.03ZM3721.53,3690.53L3728.69,3690.53L3745.76,3730.03L3736.01,3730.03L3732.63,3721.66L3717.38,3721.66L3714.11,3730.03L3704.58,3730.03L3721.53,3690.53ZM3610.75,3690.53L3622.8,3690.53L3631.12,3716.31L3631.23,3716.31L3639.6,3690.53L3651.61,3690.53L3651.61,3730.03L3643.64,3730.03L3643.64,3699.74L3643.54,3699.74L3634.04,3730.03L3627.96,3730.03L3618.82,3699.74L3618.72,3699.74L3618.72,3730.03L3610.75,3730.03L3610.75,3690.53ZM3658.88,3690.53L3670.93,3690.53L3679.25,3716.31L3679.36,3716.31L3687.72,3690.53L3699.73,3690.53L3699.73,3730.03L3691.76,3730.03L3691.76,3699.74L3691.66,3699.74L3682.16,3730.03L3676.09,3730.03L3666.95,3699.74L3666.84,3699.74L3666.84,3730.03L3658.88,3730.03L3658.88,3690.53ZM3545.57,3690.53L3554.23,3690.53L3554.23,3730.03L3545.57,3730.03L3545.57,3690.53ZM3520.37,3702.03L3515.69,3714.3L3525.09,3714.3L3520.37,3702.03ZM3517.1,3690.53L3524.11,3690.53L3540.86,3730.03L3531.29,3730.03L3527.98,3721.66L3513.02,3721.66L3509.82,3730.03L3500.46,3730.03L3517.1,3690.53ZM3462.32,3690.53L3470.76,3690.53L3470.76,3705.26L3487.17,3705.26L3487.17,3690.53L3495.61,3690.53L3495.61,3730.03L3487.17,3730.03L3487.17,3712.96L3470.76,3712.96L3470.76,3730.03L3462.32,3730.03L3462.32,3690.53ZM3434.69,3698.24L3422.32,3698.24L3422.32,3690.53L3456.6,3690.53L3456.6,3698.24L3444.24,3698.24L3444.24,3730.03L3434.69,3730.03L3434.69,3698.24ZM3383.58,3713.18L3369.26,3690.53L3379.7,3690.53L3387.77,3705.32L3396.33,3690.53L3406.29,3690.53L3391.97,3713.18L3391.97,3730.03L3383.58,3730.03L3383.58,3713.18ZM3351.28,3702.03L3346.52,3714.3L3356.08,3714.3L3351.28,3702.03ZM3347.96,3690.53L3355.09,3690.53L3372.11,3730.03L3362.38,3730.03L3359.01,3721.66L3343.82,3721.66L3340.55,3730.03L3331.05,3730.03L3347.96,3690.53ZM3326.47,3714.8C3326.47,3717.15 3326.11,3719.3 3325.39,3721.27C3324.68,3723.24 3323.62,3724.96 3322.2,3726.4C3320.8,3727.85 3319.03,3728.99 3316.92,3729.81C3314.81,3730.62 3312.39,3731.03 3309.64,3731.03C3306.85,3731.03 3304.41,3730.62 3302.3,3729.81C3300.19,3728.99 3298.43,3727.85 3297.02,3726.4C3295.6,3724.96 3294.54,3723.24 3293.83,3721.27C3293.11,3719.3 3292.75,3717.15 3292.75,3714.8L3292.75,3690.53L3301.56,3690.53L3301.56,3714.47C3301.56,3715.69 3301.76,3716.82 3302.15,3717.87C3302.55,3718.91 3303.11,3719.81 3303.82,3720.57C3304.53,3721.33 3305.39,3721.93 3306.39,3722.36C3307.38,3722.78 3308.47,3723 3309.64,3723C3310.8,3723 3311.88,3722.78 3312.86,3722.36C3313.84,3721.93 3314.68,3721.33 3315.39,3720.57C3316.11,3719.81 3316.67,3718.91 3317.06,3717.87C3317.46,3716.82 3317.66,3715.69 3317.66,3714.47L3317.66,3690.53L3326.47,3690.53L3326.47,3714.8ZM3244.04,3690.53L3256.2,3690.53L3264.59,3716.31L3264.7,3716.31L3273.15,3690.53L3285.26,3690.53L3285.26,3730.03L3277.22,3730.03L3277.22,3699.74L3277.11,3699.74L3267.53,3730.03L3261.41,3730.03L3252.18,3699.74L3252.08,3699.74L3252.08,3730.03L3244.04,3730.03L3244.04,3690.53ZM3172.01,3670.79L3172.01,3727.46C3172.01,3727.46 3176.77,3749.57 3197.2,3751.1C3217.62,3752.62 3780.04,3751.1 3780.04,3751.1C3780.04,3751.1 3801.58,3748.04 3804.1,3728.22L3804.1,3670.79C3804.1,3670.79 3662.52,3620.47 3487.64,3620.47C3312.76,3620.47 3172.01,3670.79 3172.01,3670.79" style="fill:rgb(16,89,128);fill-rule:nonzero;"/>
            </g>
            <g transform="matrix(1.4335,0,0,1.4335,574.875,-5307.08)">
                <circle cx="2146.78" cy="4396.78" r="328.222" style="fill:white;"/>
                <path d="M1886.66,4378.74C1883.32,4378.31 1881.55,4380.07 1881.01,4384.35L1880.13,4391.2L1889.88,4392.44L1890.75,4385.6C1891.29,4381.3 1890.01,4379.17 1886.66,4378.74M2070.4,4288C2070.16,4286.88 2070.25,4285.98 2070.03,4284.65C2068.46,4285.32 2068.27,4286.51 2068.16,4287.26C2067.93,4288.75 2069.06,4290.91 2071.9,4294.12C2071,4291.06 2070.63,4289.06 2070.4,4288M1995.46,4299.07C1994.34,4298.12 1992.83,4298.73 1991.48,4299.57C1990.15,4300.42 1988.18,4300.36 1987.28,4301.09C1986.4,4301.81 1984.65,4303.1 1984.65,4303.83C1986.34,4304.22 1987.45,4303.27 1989.31,4305.11C1991.2,4307.01 1991.04,4309.76 1991.6,4313.46C1992.49,4307.18 1992.56,4303.51 1993.84,4302.2C1995.91,4300.07 1996.81,4299.68 1995.46,4299.07M2105.74,4386.34C2105.74,4386.34 2101.94,4388.69 2100.7,4389.47C2099.48,4390.26 2095.77,4390.82 2093.32,4393.07C2090.85,4395.3 2090.29,4396.2 2087.16,4396.75C2085.06,4397.13 2083.24,4397.2 2083.91,4398.1C2084.59,4399 2079.32,4398.88 2077.87,4399.11C2076.42,4399.33 2077.75,4401.12 2073.95,4400.45C2070.14,4399.78 2069.58,4399.22 2067.57,4397.32C2065.66,4400.67 2066.93,4405.85 2068.24,4407.06C2069.4,4408.13 2071.48,4408.74 2074.5,4408.4C2077.53,4408.06 2077.75,4406.04 2081.44,4404.15C2085.14,4402.24 2088.84,4402.24 2091.3,4400.78C2093.76,4399.33 2097.02,4396.42 2099.48,4396.08C2101.94,4395.74 2107.2,4395.41 2108.66,4391.38C2110.11,4387.36 2111.12,4383.54 2105.74,4386.34M2048.08,4277.96C2049.54,4279.86 2050.2,4281.98 2050.16,4283.5C2050.1,4285.19 2049.48,4286.98 2048.99,4289.72C2048.62,4291.66 2048.36,4294.7 2048.76,4297.39C2050.32,4294.3 2052.32,4291.26 2053.68,4289.16C2055.37,4286.56 2059.12,4282.17 2060.01,4280.2C2059.56,4278.7 2054.03,4274.79 2051.61,4274.49C2049.32,4274.21 2049.54,4273.82 2046.96,4274.94C2044.88,4275.85 2046.57,4276.12 2048.08,4277.96M2005.09,4297.39C2003.46,4298.06 2003.8,4299.63 2004.26,4300.47C2004.96,4301.79 2007.66,4304.44 2009.79,4305.73C2009.07,4303.37 2007.58,4300.63 2007.22,4299.63C2006.83,4298.56 2006.2,4296.88 2005.09,4297.39M2081.73,4295.62C2083.09,4287.48 2085.77,4289.9 2086.45,4285.09C2087.05,4280.84 2084.59,4276.32 2079.28,4276.51C2081.11,4278.56 2082.07,4279.2 2082.33,4282.7C2082.71,4287.63 2080.62,4287.78 2081.73,4295.62M1980.96,4308.7C1980.46,4309.54 1980.39,4310.59 1980.85,4311.44C1981.56,4312.77 1982.97,4315.47 1984.27,4315.35C1983.76,4313.12 1982.98,4311.76 1982.75,4310.72C1982.51,4309.64 1981.47,4307.86 1980.96,4308.7M2039.2,4297.33C2037.89,4294.42 2036.65,4290.8 2036.3,4289.79C2035.9,4288.72 2035.24,4286.29 2034.43,4285.84C2032.93,4285.32 2033.16,4289.64 2033.15,4290.39C2033.13,4291.91 2035.95,4294.53 2039.2,4297.33M1911.62,4336.72L1913.98,4329.1L1899.43,4328.78L1911.62,4336.72ZM2025.92,4386.68C2020.47,4387.72 2016.29,4387.12 2016.29,4387.12C2016.29,4387.12 2018.52,4390.71 2028.37,4390.94C2031.98,4391.01 2036.72,4391.03 2038.23,4389.36C2040.47,4386.9 2042.26,4388.24 2043.61,4389.59C2044.94,4390.94 2046.96,4392.28 2055.02,4391.82C2059.95,4391.56 2063.53,4390.94 2065.78,4387.57C2067.05,4385.67 2068.46,4382.43 2068.46,4382.43C2068.46,4382.43 2071.15,4383.38 2075.63,4383.54C2080.1,4383.72 2081.22,4383.2 2085.93,4380.86C2089.37,4379.14 2093.54,4375.48 2094.89,4373.02C2091.75,4374.81 2085.48,4375.27 2077.87,4374.81C2070.25,4374.36 2069.8,4364.06 2069.36,4359.58C2068.91,4355.11 2066.44,4348.16 2064.66,4342.34C2062.86,4336.52 2064.43,4330.92 2065.33,4327.34C2066.22,4323.76 2062.86,4319.27 2061.52,4318.39C2061.52,4318.39 2061.07,4319.5 2062.19,4334.95C2062.74,4342.55 2064.38,4345.29 2064.66,4349.29C2065.1,4356 2065.99,4366.3 2066.44,4373.69C2066.69,4377.69 2064.87,4383.32 2061.29,4384.66C2057.71,4386.01 2047.41,4387.57 2042.48,4386.23C2037.56,4384.89 2034.87,4372.12 2033.52,4361.37C2032.18,4350.62 2031.74,4336.74 2031.74,4334.5C2031.74,4332.26 2033.08,4321.97 2033.08,4321.97L2031.29,4319.27L2031.06,4333.61C2031.06,4333.61 2029.5,4324.2 2028.15,4321.06C2028.59,4326.67 2028.59,4331.82 2029.5,4335.4C2030.4,4338.98 2029.5,4341.67 2030.85,4356C2032.18,4370.34 2033.75,4373.24 2034.64,4378.17C2035.55,4383.1 2030.62,4385.78 2025.92,4386.68M2013.09,4286.14C2011.01,4287.03 2011.25,4287.42 2014.17,4288.49C2015.89,4288.94 2017.46,4289.89 2017.68,4291.4C2018.03,4293.78 2016.9,4294.87 2016.4,4297.61C2016.04,4299.56 2016.29,4300.92 2016.68,4303.6C2018.25,4300.53 2019.42,4297.55 2020.54,4295.32C2021.66,4293.07 2025.52,4287.31 2025.25,4286.86C2022.11,4286.25 2020.84,4285.81 2018.41,4285.52C2016.12,4285.24 2015.67,4285.02 2013.09,4286.14M1950.07,4228.97C1947.46,4227.07 1944.89,4227.63 1942.79,4230.54L1938.9,4235.92L1946.99,4241.75L1950.87,4236.38C1952.97,4233.47 1952.69,4230.85 1950.07,4228.97M2287.91,4385.45C2287.91,4390.85 2285.11,4387.23 2276.55,4390.48C2281.08,4390.6 2282.53,4389.89 2284.02,4391.98C2285.51,4394.06 2285.88,4398.18 2287.6,4399.74C2290.37,4402.24 2290.48,4409.07 2291.04,4413.33C2291.66,4418.06 2294.85,4419.04 2294.85,4423.51C2294.85,4427.99 2293.29,4435.6 2295.07,4443.33C2296.36,4448.92 2296.23,4455.43 2292.49,4468.3C2292.64,4462.36 2294.4,4452.96 2291.83,4443.56C2291.09,4446.73 2290.82,4455.87 2287.12,4464.04C2285.03,4468.66 2278.28,4476.81 2273.13,4468.52C2268.12,4460.46 2268.2,4448.7 2270.59,4443.93C2272.97,4439.15 2273.95,4435.75 2273.95,4435.75C2273.95,4435.75 2273.28,4436.77 2270.59,4440.05C2267.92,4443.33 2261.34,4462.43 2268.2,4478.26C2275.07,4494.09 2282.22,4503.04 2293.58,4499.46C2308.95,4494.61 2308.72,4489.8 2312.09,4480.95C2306.49,4493.73 2304.14,4494.5 2294.18,4496.63C2297.98,4490.69 2300.67,4488.59 2306.05,4456.99C2308.49,4442.59 2300.15,4423.33 2299.55,4413.47C2299.55,4413.47 2299.55,4392.5 2296.64,4387.57C2293.7,4382.61 2294.6,4376.72 2293.72,4374.14C2293.12,4372.32 2292.27,4370.34 2283.73,4372.87C2291.27,4372.46 2293.96,4375.92 2290.6,4379.96C2288.35,4381.22 2287.12,4378.17 2279.85,4381.52C2284.44,4381.76 2287.91,4380.74 2287.91,4385.45M2194.61,4374.44C2196.25,4373.77 2197.59,4373.09 2195.43,4373.17C2192.62,4373.27 2190.57,4369.66 2190.8,4371.07C2191.02,4372.49 2192.97,4375.11 2194.61,4374.44M2204.67,4322.58C2207.12,4318.66 2213.01,4317.82 2212.05,4317.09C2211.51,4316.67 2210.49,4316.7 2208.69,4317.26C2207.04,4317.77 2206,4318.72 2205.28,4319.44C2204.55,4320.18 2201.98,4325.44 2201.98,4325.44C2201.98,4325.44 2202.59,4325.21 2204.67,4322.58M2184.37,4268.9C2182.7,4268.78 2181.91,4270.91 2181.91,4270.91C2181.91,4270.91 2183.04,4270.27 2184.23,4269.94C2186.63,4269.27 2186.55,4272.55 2184.6,4273.45C2183.11,4274.14 2180.57,4274.35 2180.72,4275.91C2181.05,4279.37 2183.34,4279.31 2183.34,4279.31C2183.34,4279.31 2183.19,4280.16 2182.89,4281.21C2182.29,4281.28 2181.83,4281.8 2181.22,4285.46C2180.68,4288.55 2182.66,4285.24 2182.96,4282.7C2183.08,4281.59 2184.68,4280.76 2184.79,4279.75C2184.9,4278.74 2183.94,4277.68 2184.97,4276.58C2186.31,4275.16 2187.07,4272.37 2187.07,4270.91C2187.07,4269.45 2186.06,4269.01 2184.37,4268.9M2281.64,4502.21C2278.56,4501.56 2277.16,4500.31 2277.16,4500.31C2275.37,4507.48 2271.45,4514.43 2266.75,4514.98C2258.68,4518.69 2255.32,4515.21 2251.63,4515.21C2253.54,4516.44 2256.68,4518.56 2259.69,4518.9C2262.71,4519.23 2265.85,4521.82 2271.22,4520.92C2276.61,4520.03 2285.11,4514.32 2288.91,4513.41C2292.73,4512.52 2294.51,4506.81 2297.42,4503.12C2298.88,4501.27 2299.17,4500.14 2299.17,4500.14C2299.17,4500.14 2296.04,4502.5 2292.95,4502.68C2288.93,4502.89 2284.52,4502.84 2281.64,4502.21M2230.01,4340.44C2228.68,4342.79 2225.44,4350.07 2220.96,4352.31C2216.48,4354.55 2209.86,4355.44 2205.06,4354.55C2200.24,4353.65 2189.82,4350.85 2184.9,4339.1C2179.98,4327.34 2177.41,4316.7 2176.95,4314.02C2176.65,4312.19 2178.65,4303.38 2180.21,4297.39C2180.13,4297.47 2180.04,4297.57 2179.98,4297.63C2179.22,4298.38 2178.41,4301.89 2177.44,4303.97C2176.47,4306.06 2175.2,4310.77 2175.26,4314.94C2175.34,4319.13 2178.03,4329.21 2179.15,4333.75C2180.26,4338.31 2182.51,4347.19 2183.25,4351.82C2183.93,4355.94 2186.69,4363.39 2188.19,4365.03C2187.52,4361.59 2186.67,4357.92 2186.25,4355.86C2185.8,4353.69 2185.8,4349.96 2185.95,4348.47C2185.95,4348.47 2191.93,4353.39 2195.43,4354.88C2198.93,4356.38 2201.69,4356.74 2203.93,4357.05C2204.57,4357.13 2203.63,4359.96 2202.89,4361.75C2202.25,4363.25 2200.72,4365.71 2199.75,4367.27C2200.65,4367.05 2201.4,4366.52 2202.59,4364.96C2203.79,4363.39 2205.82,4360.19 2206.24,4360.32C2207.44,4360.71 2208.19,4361.37 2208.71,4362.35C2207.73,4364.36 2206.55,4366.39 2203.03,4369.07C2200.7,4370.86 2200.28,4372.49 2199.01,4374C2202.29,4372.05 2203.34,4370.64 2203.93,4370.64C2204.53,4370.64 2205.12,4371.53 2205.57,4372.49C2206.01,4373.44 2205.18,4382.57 2204.76,4386.45C2204.33,4390.28 2201.77,4401.68 2200.43,4403.47C2198.49,4401.24 2196.02,4395.64 2193.11,4391.46C2190.2,4387.28 2174.68,4361.75 2171.68,4353.09C2169.47,4346.69 2168.18,4340.11 2168.11,4336.45C2168.03,4332.79 2168.71,4329.8 2168.93,4326.82C2167.43,4330.62 2166.24,4336.07 2166.24,4336.07C2166.24,4336.07 2163.18,4319.43 2162.88,4314.5C2162.58,4309.57 2163.03,4307.56 2163.24,4305.62C2164.07,4305.02 2163.85,4305.02 2166.61,4304.05C2169.38,4303.08 2172.28,4300.54 2174.82,4296.67C2176.43,4294.22 2177.89,4291.43 2177.89,4291.43C2177.89,4291.43 2178.49,4291.74 2179.08,4292.1C2179.67,4292.48 2180.72,4292.1 2181.7,4292.1C2181.7,4292.1 2181.72,4292.09 2181.72,4292.09C2181.77,4291.98 2181.8,4291.88 2181.83,4291.81C2181.03,4291.66 2179.38,4291.22 2178.11,4289.35C2176.66,4287.07 2176.43,4284.23 2177.06,4282.11C2178.26,4278.15 2176.82,4274.66 2177.81,4272.03C2179.15,4268.44 2181.62,4268.76 2182.51,4267.7C2184,4265.9 2187.52,4265.57 2188.96,4266.24C2191.19,4267.15 2190.98,4271.16 2190.91,4271.57C2191.13,4276.5 2189.68,4278.52 2189.91,4279.35C2190.12,4280.16 2190.35,4277.7 2191.47,4276.07C2191.91,4275.42 2192.11,4274.56 2192.21,4273.75C2192.59,4273.72 2192.96,4273.56 2193.02,4274.38C2193.24,4277.3 2191.62,4284.11 2191.62,4284.11L2194.71,4287.42L2200.69,4274.59C2200.69,4274.59 2210.7,4273.87 2213.11,4273.37C2213.74,4270.19 2215.75,4265.7 2215.75,4265.7C2215.75,4265.7 2227.87,4274.09 2230.88,4274.92C2231.92,4275.2 2235.47,4276.51 2235.8,4277.18C2236.11,4277.85 2233.92,4286.32 2231.65,4291.29C2230.81,4293.1 2229.85,4293.36 2227.28,4291.12C2225.37,4289.46 2218.88,4286.3 2216.55,4285.8C2212.58,4284.96 2211.68,4286.47 2209.36,4287.76C2212.65,4287.37 2214.32,4287.85 2215.52,4288.15C2216.72,4288.45 2220.1,4291.31 2220.1,4291.31C2220.1,4291.31 2215.49,4290.61 2213.31,4290.94C2210.3,4291.4 2209.03,4291.23 2209.03,4291.23C2209.03,4291.23 2209.12,4292.04 2209.22,4292.7C2210.86,4292.85 2210.95,4292.99 2211.15,4293.7C2211.49,4294.82 2211.33,4296.44 2213.9,4299.13C2216.27,4301.6 2221.58,4301.09 2222.48,4300.56C2222.54,4301.84 2222,4303.96 2215.55,4303.88C2218.49,4305.22 2219.08,4305.9 2224.77,4304.11C2230.43,4302.31 2231.64,4301.49 2233.45,4305.02C2235.56,4309.14 2232.1,4312.61 2230.53,4316.77C2229.38,4319.76 2230.69,4322.75 2227.04,4325.65C2224.62,4327.6 2220.52,4324.28 2219.2,4322.36C2217.42,4319.78 2214.31,4318.5 2214.41,4320.45C2214.46,4321.63 2216.25,4320.9 2217.99,4322.86C2218.76,4323.74 2218.83,4325.07 2219.95,4326.67C2222.21,4329.88 2220.06,4330.7 2220.79,4332.28C2222.35,4332.44 2223.41,4331.93 2223.41,4331.93L2223.53,4334C2223.53,4334 2221.76,4334.41 2220.62,4334C2219.48,4333.59 2219.51,4332.1 2217.42,4331.19C2215.35,4330.33 2203.87,4330.76 2203.6,4330.36C2203.32,4329.97 2204.38,4328.73 2203.7,4328.73C2202.54,4328.73 2200.2,4332.23 2200.2,4332.23C2200.2,4332.23 2201.14,4333.61 2201.52,4332.94C2202.03,4332.07 2202.54,4331.7 2202.93,4331.32C2203.55,4331.84 2203.39,4332.28 2205.78,4332.28C2208.18,4332.28 2211.27,4332.28 2214.7,4333.59C2216.88,4334.42 2218.32,4337.12 2215.14,4336.82C2213.01,4336.6 2212.81,4335.3 2208.19,4335.35C2206.24,4335.36 2203.25,4334.44 2203.25,4334.44C2203.25,4334.44 2203.75,4336.49 2205.25,4337.39C2206.74,4338.28 2207.85,4338.03 2209.8,4338.33C2211.73,4338.63 2214.24,4340 2214.68,4342.41C2215.14,4344.79 2213.33,4348.58 2208.36,4348.21C2204.63,4347.92 2201.14,4347.44 2203.08,4349.38C2205.02,4351.32 2208.15,4352.21 2212.93,4352.21C2217.71,4352.21 2221.07,4349.43 2223.76,4345.25C2226.44,4341.07 2230.64,4334.34 2235.58,4331.63C2240.34,4329.04 2246.97,4323.1 2248.01,4319.38C2249.05,4315.65 2250.25,4313.7 2253.08,4311.46C2255.92,4309.22 2255.26,4304.16 2256.16,4301.93C2257.05,4299.69 2263.05,4287.28 2263.24,4281.01C2263.72,4264.31 2247.29,4247.48 2243.96,4244.65C2243.88,4244.59 2243.79,4244.5 2243.7,4244.43C2249.95,4248.19 2257.74,4254.94 2261.48,4264.75C2266.18,4277.08 2265.62,4284.45 2264.5,4289.72C2263.38,4294.98 2259.02,4301.37 2258.46,4304.05C2257.9,4306.73 2258.68,4311.1 2256,4312.78C2253.3,4314.46 2251.52,4315.92 2249.39,4320.84C2247.27,4325.77 2245.7,4327.68 2240.55,4330.92C2235.39,4334.16 2231.37,4338.08 2230.01,4340.44M2240.55,4341.12C2241.22,4342.45 2241.78,4345.48 2241.78,4345.48C2241.78,4345.48 2242.23,4345.25 2242.33,4342.34C2245.36,4346.37 2247.79,4346.67 2252.87,4349.5C2257.94,4352.35 2263.38,4353.54 2265.18,4354.88C2268.31,4356.9 2270.67,4360.93 2272.22,4364.36C2271.22,4364.62 2270.77,4364.91 2268.95,4364.51C2267.19,4362.16 2264.11,4357.45 2260.14,4355.86C2256.89,4354.55 2256,4355.11 2254.02,4353.02C2254.32,4355.44 2255.77,4359.25 2253.12,4362.27C2252.87,4353.87 2250.28,4351.82 2248.2,4351.08C2246.1,4350.33 2242.69,4347.04 2242.69,4347.04C2242.69,4347.04 2243.9,4351.63 2244.02,4353.91C2244.02,4357.79 2243.12,4361.15 2241.47,4363.62C2241.66,4359.59 2240.43,4354.66 2239.54,4348.84C2238.64,4343.01 2234.99,4341.59 2233.38,4339.2C2233.38,4339.2 2234.51,4337.64 2235.84,4337.19C2238.38,4338.08 2239.88,4339.77 2240.55,4341.12M2281.46,4368.09C2284.15,4368.09 2284.17,4367.35 2286.42,4367.64C2288.65,4367.95 2289.38,4368.3 2290.44,4369.89C2292.11,4372.35 2292.38,4371.38 2293.88,4372.57C2295.38,4373.77 2295.96,4374.66 2295.82,4377.5C2295.68,4380.33 2296.72,4381.68 2298.65,4386.15C2300.6,4390.63 2300.45,4389.59 2301.49,4399.45C2302.53,4409.3 2301.04,4413.33 2301.04,4413.33C2300.9,4422.14 2302.83,4421.09 2303.88,4427.65C2304.92,4434.23 2306.56,4439.3 2308.36,4444.08C2310.15,4448.86 2309.85,4457.06 2308.36,4462.89C2306.87,4468.71 2306.26,4471.39 2305.07,4475.28C2303.88,4479.16 2297.84,4489.31 2298.85,4490.8C2301.39,4494.55 2303.18,4490.36 2303.69,4489.85C2303.98,4489.56 2303.59,4489.47 2305.83,4487.96C2308.06,4486.48 2308.51,4480.2 2309.25,4476.32C2309.25,4476.32 2309.25,4474.68 2311.79,4472.74C2313.74,4471.26 2313.73,4474.39 2313.88,4480.2C2314.03,4486.02 2310.15,4492.15 2305.83,4497.07C2301.49,4502 2300.45,4504.39 2297.76,4508.57C2295.07,4512.74 2291.79,4515.44 2287.31,4516.77C2282.83,4518.12 2279.54,4520.06 2274.92,4522.45C2270.14,4524.91 2267.06,4524.27 2262.53,4522.3C2258.04,4520.35 2255.97,4521.55 2250.58,4517.83C2246.75,4515.16 2245.65,4511.4 2243.86,4505.88C2242.08,4500.34 2238.64,4496.32 2238.35,4492.44C2238.05,4488.57 2239.35,4484.73 2240.99,4481.9C2242.18,4479.85 2242.82,4478.26 2243.62,4477.32C2244.05,4476.81 2244.88,4477.07 2244.92,4477.73C2244.97,4478.86 2244.78,4480.28 2245.36,4481.84C2246.17,4484 2247.96,4487.26 2250.14,4488.57C2248.66,4485.44 2246.72,4482.9 2246.55,4476.48C2246.41,4470.21 2247.3,4472.14 2247.3,4468.42C2247.3,4464.68 2247.9,4460.95 2249.54,4457.81C2251.18,4454.68 2252.52,4453.19 2255.05,4451.55C2256.35,4450.71 2258.03,4449.25 2258.84,4448.58C2259.46,4448.07 2260.38,4448.65 2260.2,4449.44C2259.82,4450.98 2258.72,4453.62 2257.9,4456.17C2261.34,4453.19 2261.94,4446.92 2264.03,4442.29C2266.12,4437.66 2268.34,4436.32 2271.93,4434.82C2275.52,4433.33 2273.29,4437.73 2275.54,4433.71C2277.77,4429.67 2277.55,4429.02 2277.66,4426.6C2277.77,4424.18 2277.27,4422.17 2277.16,4421.09C2278.07,4421.11 2279.63,4421.55 2280.62,4420.88C2279.79,4420.55 2279.7,4420.85 2276.72,4419.21C2273.72,4417.56 2272.22,4414.22 2270.89,4411.83C2269.55,4409.45 2268.8,4407.01 2268.87,4404.42C2268.98,4400.86 2267.87,4402.35 2267.92,4399.78C2269.88,4399.11 2270.83,4401.18 2272.57,4401.75C2270.89,4400.4 2270.99,4399.89 2270.89,4399.56C2271.34,4399.39 2272.06,4398.88 2273.23,4398.21C2271.28,4399.05 2270.67,4399.16 2269.1,4398.7C2266.21,4398.94 2265.11,4398.39 2263.44,4397.77C2265.41,4399.39 2267.42,4399.49 2265.97,4400.33C2264.2,4401.36 2264.23,4400.23 2261.48,4398.26C2259.56,4396.87 2259.6,4396.82 2259.84,4393.32C2260.01,4390.8 2261.88,4390.98 2264.05,4390.6C2266.19,4390.22 2267.74,4389.86 2270.16,4389.92C2271.22,4389.95 2273.01,4389.81 2273.86,4389.65C2273.46,4389.65 2273.52,4389.76 2273.29,4389.42C2273.68,4389.14 2274.69,4388.64 2276.11,4388.19C2274.92,4388.33 2273.51,4388.94 2272.97,4389.03C2271.06,4389.47 2269.03,4389.14 2267.01,4388.99C2264.77,4388.83 2263.22,4389.16 2261.43,4390.2C2259.64,4391.26 2258.95,4390.48 2258.49,4388.69C2258.04,4386.9 2258.04,4385.1 2259.69,4383.17C2261.34,4381.23 2262.26,4381.07 2265.41,4380.91C2268.54,4380.76 2269.84,4381.38 2271.78,4381.52C2273.72,4381.68 2276.11,4382.09 2277.75,4382.44C2277,4382.26 2274.97,4381.52 2274.69,4381.35C2274.8,4381.25 2275.55,4380.86 2276.44,4380.24C2275.27,4380.64 2274.76,4380.81 2274.35,4380.97C2273.46,4380.97 2272.62,4381.02 2269.82,4380.74C2267.12,4380.48 2263.61,4379.52 2262.93,4380.19C2262.54,4380.58 2261.7,4381.07 2260.62,4381.2C2260.15,4381.25 2259.67,4381.2 2259.5,4380.74C2259.38,4380.38 2259.35,4380.05 2259.25,4379.74C2258.8,4378.34 2259.69,4375.4 2261.34,4374.06C2262.97,4372.72 2264.18,4372.72 2267.01,4373.17C2269.84,4373.63 2273.81,4373.64 2275.64,4374.31C2276.82,4374.53 2276.8,4373.97 2279.57,4374.87C2277.79,4374.1 2277.33,4374.19 2276.72,4373.86C2277.05,4373.41 2277.47,4373.04 2278.67,4372.46C2277.97,4372.65 2277.27,4373.51 2275.26,4373.52C2273.91,4373.52 2272.62,4372.98 2268.14,4372.23C2263.66,4371.49 2261.65,4371.9 2261.65,4371.9C2260.01,4372.05 2260.48,4370.63 2261.82,4368.09C2263.16,4365.56 2264.18,4365.85 2266.56,4365.85C2268.95,4365.85 2271.18,4366.16 2274.32,4366.91C2277.45,4367.64 2278.78,4368.09 2281.46,4368.09M2318.68,4568.57L2200.17,4568.46C2199.86,4562.76 2200.31,4555.65 2198.68,4553.22C2195.76,4548.92 2190.83,4543.14 2190.83,4543.14C2190.83,4543.14 2198.9,4537.78 2201.13,4534.63C2203.37,4531.5 2205.5,4526.74 2207.64,4524.33C2208.41,4523.45 2209.64,4522.24 2211.01,4520.94L2250.16,4520.87C2251.67,4522.48 2253.52,4523.56 2256.23,4523.66C2262.26,4523.89 2264.94,4527.47 2270.55,4526.12C2274.51,4525.17 2278.25,4522.67 2282.31,4520.81L2293.17,4520.78L2318.68,4568.57ZM2325.97,4603.51C2330.09,4608.5 2331.27,4612.44 2330.3,4617.23C2329.24,4622.26 2326.11,4626.8 2320.8,4631.17C2315.43,4635.58 2310.43,4637.75 2305.28,4637.8C2300.34,4637.88 2296.71,4635.94 2292.61,4630.98L2273.04,4607.17L2284.1,4598.08L2302.81,4620.81C2305.87,4624.53 2309.54,4624.93 2313.14,4621.97C2316.79,4618.97 2317.1,4615.28 2314.05,4611.58L2295.35,4588.83L2306.41,4579.73L2325.97,4603.51ZM2267.94,4663.01C2261.04,4666.02 2254.29,4666.31 2248.93,4663.9C2245.61,4662.38 2243.51,4660.25 2241.28,4656.06L2254.74,4650.18C2256.3,4653.4 2259.46,4654.21 2263.61,4652.38C2266.95,4650.92 2268.71,4648.51 2267.85,4646.54C2267.28,4645.24 2265.95,4644.87 2262.88,4645.2L2253.04,4646.29C2247.52,4646.92 2244.15,4646.52 2241.23,4645.06C2238.7,4643.74 2236.63,4641.52 2235.45,4638.83C2231.91,4630.76 2236.82,4622.11 2247.51,4617.43C2254.42,4614.41 2260.49,4614.16 2265.04,4616.72C2267.79,4618.17 2269.37,4619.98 2271.3,4623.68L2258.69,4629.2C2256.75,4626.91 2254.48,4626.35 2251.65,4627.6C2249.03,4628.74 2247.54,4630.72 2248.2,4632.23C2248.7,4633.33 2249.71,4633.68 2251.71,4633.44L2261.11,4632.22C2272.42,4630.7 2277.74,4632.67 2280.74,4639.5C2284.66,4648.48 2279.56,4657.91 2267.94,4663.01M2222.73,4677.4L2208.28,4680.74L2200.4,4646.51L2187.07,4649.57L2184.23,4637.2L2225.37,4627.76L2228.21,4640.13L2214.87,4643.18L2222.73,4677.4ZM2167.72,4686.35L2163.09,4638.8L2177.85,4637.35L2182.48,4684.93L2167.72,4686.35ZM2158.7,4610.6C2157.92,4610.94 2154.22,4610.26 2152.76,4609.59C2151.31,4608.93 2148.29,4606.57 2146.27,4605.45C2144.26,4604.34 2144.26,4604.34 2143.14,4601.2C2142.01,4598.07 2140.56,4592.02 2139.78,4589.89C2139,4587.77 2138.21,4581.17 2139.11,4577.69C2140,4574.22 2141.13,4567.94 2141.58,4564.81C2142.01,4561.68 2142.13,4557.54 2144.26,4554.18C2146.39,4550.81 2151.2,4544.32 2153.21,4541.75C2155.23,4539.18 2157.02,4537.16 2160.17,4535.03C2163.55,4532.72 2166.65,4531.79 2168.78,4532.57C2171.93,4533.73 2174.72,4535.92 2174.72,4535.92C2176.05,4538.28 2175.26,4538.28 2173.03,4537.71C2171.56,4537.34 2169.34,4535.03 2168.89,4536.03C2168.44,4537.03 2170.12,4537.03 2170.46,4538.95C2170.79,4540.85 2171.13,4542.87 2169.79,4547.46C2169.01,4550.27 2168.32,4551.83 2167.32,4552.73C2166.61,4552.01 2166.21,4551.33 2165.64,4550.81C2166.91,4549.45 2168.39,4544.06 2167.43,4541.41C2166.85,4543.66 2165.51,4547.25 2163.41,4548.47C2162.62,4548.24 2161.39,4547.81 2161.17,4546.68C2163.31,4546.24 2164.91,4542.89 2165.19,4539.84C2163.71,4539.42 2162.32,4541.2 2161.27,4542.64C2159.76,4544.72 2158.7,4546.45 2157.36,4548.47C2156.01,4550.48 2155.57,4551.72 2155.57,4551.72C2155.57,4551.72 2155.79,4547.56 2157.36,4545.1C2158.93,4542.64 2160.62,4540.18 2162.51,4538.95C2164.59,4537.6 2165.86,4538.15 2166.43,4537.38C2166.98,4536.59 2166.31,4535.37 2165.42,4535.37C2164.52,4535.37 2162.85,4536.26 2161.5,4537.27C2160.17,4538.28 2158.48,4539.84 2156.8,4541.19C2155.12,4542.54 2148.85,4551.25 2146.61,4555.97C2144.37,4560.67 2142.91,4568.84 2142.36,4572.65C2141.79,4576.45 2140.9,4579.71 2142.25,4585.98C2143.59,4592.24 2144.58,4595.71 2145.39,4598.4C2146.16,4601.08 2146.39,4601.2 2148.18,4602.43C2149.97,4603.67 2152.21,4605.79 2154.68,4606.45C2157.13,4607.15 2158.82,4606.57 2159.16,4607.58C2159.49,4608.57 2159.49,4610.26 2158.7,4610.6M2151.36,4670.76C2151.08,4677.77 2150.1,4680.6 2146.9,4683.4C2143.4,4686.55 2138.4,4688.14 2132.81,4687.91C2121.64,4687.45 2115.05,4680.23 2115.52,4668.78L2115.64,4665.76L2129.46,4666.33L2129.3,4670.28C2129.16,4673.64 2130.38,4675.41 2132.96,4675.52C2135.54,4675.62 2136.89,4674.03 2137.03,4670.59L2138.31,4639.23L2152.63,4639.82L2151.36,4670.76ZM2103.01,4671.7L2082.35,4667.21L2084.8,4656L2105.46,4660.5L2103.01,4671.7ZM2063.62,4670.65C2058.7,4672.22 2053.22,4671.72 2046.8,4669.25C2040.31,4666.74 2035.97,4663.47 2033.37,4659.01C2030.87,4654.76 2030.76,4650.64 2033.08,4644.62L2044.14,4615.86L2057.53,4621.01L2046.95,4648.5C2045.22,4652.98 2046.68,4656.39 2051.02,4658.05C2055.45,4659.75 2058.8,4658.2 2060.53,4653.72L2071.11,4626.23L2084.48,4631.37L2073.41,4660.13C2071.11,4666.14 2068.26,4669.13 2063.62,4670.65M1998.68,4644.49L2022.58,4603.1L2035.43,4610.51L2011.53,4651.9L1998.68,4644.49ZM1982.97,4629.38C1978.28,4629.81 1973.32,4628.05 1968.99,4624.5C1960.35,4617.41 1959.44,4607.68 1966.71,4598.81L1968.62,4596.48L1979.32,4605.25L1976.81,4608.3C1974.68,4610.92 1974.59,4613.05 1976.58,4614.69C1978.58,4616.32 1980.62,4615.88 1982.8,4613.21L2002.71,4588.96L2013.79,4598.03L1994.15,4621.97C1989.7,4627.39 1987.22,4629.07 1982.97,4629.38M2139.45,4531.32C2133.95,4530 2125.78,4526.18 2121.41,4522.26C2117.05,4518.35 2105.85,4514.64 2103.61,4513.65C2101.38,4512.64 2098.69,4509.73 2097.23,4507.92C2095.77,4506.15 2089.62,4501.77 2088.16,4500.55C2086.72,4499.31 2085.94,4497.3 2085.47,4496.29C2085.03,4495.28 2084.69,4491.03 2084.69,4489.23C2084.69,4487.45 2083.8,4485.88 2082.56,4484.3C2081.34,4482.75 2077.64,4477.37 2076.74,4475.12C2075.85,4472.89 2073.72,4466.95 2072.6,4464.38C2071.48,4461.81 2066.35,4455.98 2064.88,4453.51C2063.42,4451.06 2060.4,4446.16 2060.95,4444.34C2060.95,4444.34 2064.16,4443.26 2065.62,4443.49C2065.92,4444.68 2065.88,4445.45 2067,4447.92C2068.13,4450.39 2073.61,4457.55 2076.08,4460.46C2078.54,4463.36 2078.76,4466.73 2079.43,4469.87C2080.1,4473 2081.34,4476.36 2083.35,4477.58C2085.36,4478.82 2090.4,4485.42 2091.75,4487.34C2093.09,4489.23 2096.75,4495.28 2094.76,4495.28C2094.11,4495.28 2092.53,4492.59 2090.85,4490.58C2089.18,4488.57 2087.16,4484.98 2084.59,4483.87C2084.46,4486.22 2086.38,4489 2086.82,4492.59C2087.26,4496.19 2088.84,4497.18 2091.97,4499.98C2094.52,4502.26 2097.02,4503.9 2100.26,4507.6C2103.5,4511.29 2114.03,4515.78 2119.51,4517.11C2125,4518.45 2128.59,4521.82 2127.69,4522.26C2126.78,4522.71 2123.21,4518.9 2121.31,4520.14C2124.1,4522.71 2131.5,4525.85 2135.86,4527.3C2140.23,4528.76 2147.28,4530 2151.88,4530.33C2156.47,4530.66 2159.71,4532.9 2159.71,4532.9C2160.83,4534.13 2158.26,4534.36 2157.13,4533.69C2153.78,4531.66 2144.93,4532.67 2139.45,4531.32M2029.98,4485.3L2048.55,4443.2C2053.6,4443.42 2058.16,4443.56 2058.16,4443.56C2058.16,4443.56 2060.34,4452.79 2063.42,4457.83C2068.07,4465.45 2072.28,4466.32 2074.45,4472.89C2076.25,4478.35 2079.12,4482.86 2080.95,4485.1L2029.98,4485.3ZM2019.64,4424.52C2018.01,4419.14 2014.42,4413.62 2011.88,4410.79C2009.34,4407.95 2006.19,4399.1 2005.76,4396.15C2005.46,4394.06 2006.36,4393.47 2007.71,4393.62C2009.05,4393.77 2009.19,4395.71 2009.94,4399.14C2010.68,4402.57 2013.97,4403.92 2016.66,4407.5C2019.35,4411.09 2021.43,4415.57 2022.03,4418.25C2022.63,4420.94 2022.48,4423.33 2024.86,4427.5C2027.26,4431.69 2032.04,4433.33 2035.61,4434.07C2039.2,4434.82 2041.89,4434.07 2045.17,4434.82C2048.46,4435.57 2051.74,4436.47 2055.02,4436.32C2058.31,4436.16 2059.21,4436.47 2062.48,4434.52C2065.78,4432.59 2068.46,4432.74 2069.96,4432.28C2071.45,4431.83 2073.38,4430.94 2073.98,4428.7C2074.48,4426.83 2071.15,4429.89 2066.37,4431.69C2061.59,4433.48 2058.31,4431.54 2055.62,4431.69C2052.93,4431.83 2051.3,4433.03 2048,4431.54C2044.73,4430.05 2041.14,4430.64 2040.54,4429.75C2039.54,4428.24 2045.32,4426.47 2048.31,4427.06C2051.3,4427.66 2060.55,4427.5 2063.53,4427.06C2066.52,4426.62 2070.55,4424.97 2072.49,4424.08C2074.43,4423.19 2076.22,4420.34 2078.31,4417.51C2080.4,4414.67 2081.3,4415.26 2082.79,4413.93C2084.28,4412.58 2084.73,4410.03 2086.07,4409.59C2087.42,4409.15 2088.46,4410.35 2088.46,4413.78C2088.46,4417.21 2086.82,4415.86 2087.42,4418.85C2088.01,4421.83 2094.14,4414.67 2096.37,4410.94C2098.62,4407.21 2099.36,4405.71 2102.95,4403.03C2106.53,4400.33 2107.27,4400.64 2108.76,4397.95C2110.26,4395.27 2113.24,4393.62 2114.29,4388.99C2114.97,4385.99 2117.04,4384.34 2117.88,4382.87C2118.73,4381.34 2121.07,4377.44 2123.25,4376C2125.37,4374.61 2126.08,4371.38 2126.98,4368.23C2127.87,4365.1 2128.7,4363.95 2130.56,4360.48C2131.6,4358.55 2132.43,4353.81 2131.38,4353.24C2129.81,4357.43 2128.73,4359.82 2126.53,4360.63C2124.55,4361.37 2124.74,4362.72 2123.1,4364.36C2122.76,4360.8 2124.81,4356.65 2123.99,4354.06C2122.91,4350.64 2120.41,4346 2119.22,4342.57C2118.02,4339.14 2115.18,4335.99 2113.68,4331.82C2112.2,4327.64 2111.9,4324.65 2110.56,4320.62C2109.21,4316.59 2107.27,4313.01 2105.03,4310.47C2104.74,4308.45 2104.81,4307.34 2104.74,4304.95C2106.23,4304.79 2106.53,4305.24 2107.57,4307.49C2108.62,4309.72 2112.65,4312.71 2114.29,4314.5C2115.93,4316.29 2117.26,4319.58 2119.07,4323.31C2119.96,4318.68 2116.98,4314.2 2115.48,4311.96C2113.99,4309.72 2109.37,4307.63 2109.96,4305.85C2110.56,4304.05 2115.48,4304.95 2117.42,4305.7C2119.37,4306.45 2122.64,4309.28 2124.74,4310.18C2126.83,4311.07 2127.28,4314.94 2128.62,4317.63C2129.96,4320.32 2131.91,4325.7 2133.55,4328.68C2134.45,4326.59 2132.5,4317.94 2130.71,4313.01C2128.91,4308.08 2124.14,4307.93 2123.84,4306.45C2123.54,4304.95 2125.34,4304.95 2128.03,4304.19C2130.71,4303.45 2136.39,4303.75 2138.92,4303.9C2141.46,4304.05 2145.03,4301.81 2147.43,4300.77C2149.82,4299.73 2152.95,4298.82 2154.16,4299.73C2152.05,4302.27 2148.92,4302.96 2146.69,4304.19C2143.89,4305.76 2143.39,4304.95 2143.11,4310.47C2142.8,4315.99 2142.8,4322.12 2143.55,4329.57C2144.29,4337.05 2144.74,4337.34 2147.28,4344.36C2149.82,4351.37 2155.05,4364.21 2157.28,4369.58C2159.53,4374.96 2166.98,4388.55 2168.78,4392.73C2170.57,4396.91 2175.5,4403.63 2177.14,4407.5C2178.78,4411.39 2182.37,4420.02 2184.31,4423.48C2187.89,4429.89 2189.38,4434.82 2191.02,4438.26C2189.24,4441.7 2187.89,4444.97 2186.84,4446.77C2185.8,4448.56 2184.6,4451.24 2182.66,4453.79C2180.57,4450.94 2180.26,4450.19 2178.18,4446.31C2176.09,4442.44 2172.07,4438.85 2170.57,4437.07C2169.08,4435.26 2167.14,4431.54 2165.49,4429.45C2163.85,4427.36 2163.71,4424.67 2162.66,4420.94C2161.61,4417.21 2162.81,4414.97 2160.42,4411.68C2158.03,4408.4 2157.28,4410.79 2157.88,4414.37C2158.48,4417.95 2160.12,4419 2161.61,4424.52C2163.1,4430.05 2163.71,4433.92 2165.49,4436.77C2167.28,4439.6 2170.72,4444.82 2173.4,4448.56C2176.09,4452.29 2176.84,4453.47 2176.7,4456.92C2176.54,4460.36 2178.03,4463.78 2178.93,4466.48C2177.74,4469.46 2176.38,4471.54 2173.11,4477.07C2169.83,4482.59 2166.53,4487.96 2163.1,4492.3C2159.68,4496.63 2154.89,4501.69 2151.61,4504.4C2148.32,4507.07 2144.58,4512.15 2142.8,4513.65C2141.02,4515.14 2140.12,4513.35 2138.03,4511.26C2135.93,4509.16 2135.05,4507.66 2129.81,4505.88C2124.59,4504.08 2123.84,4505.14 2121.01,4501.69C2120.86,4504.55 2124.54,4507.84 2128.47,4509.01C2132.95,4510.36 2136.24,4513.05 2136.83,4516.77C2136.91,4517.25 2135.05,4520.81 2130.86,4519.18C2124.48,4516.66 2119.22,4511.26 2114.89,4508.72C2110.56,4506.18 2109.21,4504.55 2107.57,4501.85C2105.93,4499.17 2104.58,4496.32 2104.58,4493.64C2104.58,4490.95 2103.39,4485.14 2101.45,4481.99C2099.51,4478.86 2099.36,4474.83 2099.51,4472.29C2099.65,4470.01 2105.81,4480.23 2107.57,4481.99C2109.59,4484 2119.82,4488.7 2121.01,4492.14C2122.35,4496.03 2127.13,4499.17 2130.26,4499.17C2127.13,4495.28 2126.98,4495.12 2124.29,4490.2C2121.6,4485.28 2113.99,4479.3 2109.96,4475.58C2105.93,4471.84 2102.8,4467.21 2102.8,4460.2C2102.8,4453.19 2100.86,4451.09 2099.21,4448.41C2097.57,4445.72 2098.17,4441.54 2097.57,4436.32C2100.86,4439 2102.35,4439.6 2107.72,4440.79C2113.1,4441.98 2115.04,4443.62 2117.88,4447.36C2120.71,4451.09 2122.64,4450.64 2122.64,4450.64C2124.29,4450.8 2126.46,4452.01 2126.53,4451.4C2126.83,4448.86 2126.18,4447.45 2124.14,4444.38C2122.05,4441.24 2122.64,4440.19 2121.6,4434.52C2120.56,4428.85 2114.89,4424.82 2112.2,4422.88C2109.51,4420.94 2108.32,4419.3 2107.72,4412.87C2107.12,4406.45 2111.6,4402.57 2114.89,4399.14C2118.17,4395.71 2119.07,4392.58 2121.16,4385.57C2123.25,4378.54 2125.76,4379.41 2127.87,4377.05C2130.41,4374.21 2131.29,4371.8 2131.75,4367.64C2132.35,4362.27 2134.02,4360.71 2135.19,4357.78C2135.78,4356.3 2136.68,4356.3 2136.53,4353.02C2136.39,4349.74 2134.75,4351.52 2134.75,4353.47C2134.75,4355.4 2133.55,4358.39 2132.06,4360.92C2130.56,4363.46 2129.36,4365.83 2128.91,4368.84C2128.36,4372.66 2127.05,4375.6 2123.69,4377.65C2119.64,4380.12 2119.82,4381.52 2116.98,4386.01C2114.14,4390.48 2114.29,4394.67 2113.24,4396.91C2112.2,4399.14 2107.72,4403.03 2104.88,4404.96C2101.57,4407.24 2099.81,4408.56 2098.32,4412.28C2096.82,4416.01 2094.73,4418.85 2091.46,4420.48C2088.16,4422.12 2086.97,4423.19 2084.28,4424.39C2084.59,4422.44 2086.22,4419.59 2085.63,4417.06C2083.53,4419.45 2079.92,4428.76 2076.97,4434.07C2073.98,4439.44 2071.15,4437.8 2066.37,4438.71C2061.59,4439.6 2056.37,4441.09 2049.2,4441.09C2042.04,4441.09 2030.69,4437.07 2027.26,4435.57C2023.82,4434.07 2021.28,4429.89 2019.64,4424.52M1985.34,4485.47L1923.75,4485.71L1979.91,4368.18C1982.16,4374.63 1983.69,4379.67 1990.42,4384.16C1997.81,4389.09 2002.51,4389.98 2002.51,4389.98C2002.51,4389.98 2002.73,4397.15 2004.53,4400.29C2006.33,4403.41 2006.99,4411.25 2009.68,4413.71C2011.22,4415.13 2013.22,4417.17 2015.02,4419.61L1985.34,4485.47ZM1880.64,4330.48L1884.83,4316.92L1936.33,4315.85L1932.13,4329.48L1925.1,4329.36L1920.92,4342.92L1926.76,4346.86L1922.63,4360.22L1880.64,4330.48ZM1919.37,4381.39C1918.2,4381.84 1917.67,4381.92 1915.1,4381.8L1911.65,4381.63C1904.61,4381.15 1901.81,4382.84 1901.29,4388.15L1900.58,4393.8L1917.52,4395.94L1915.82,4409.35L1867.31,4403.19L1869.96,4382.27C1870.94,4374.56 1871.9,4371.62 1874.32,4368.86C1876.99,4365.86 1881.45,4364.44 1886.26,4365.06C1891.71,4365.74 1895.37,4368.39 1897.5,4373.16C1899.87,4369.65 1903.16,4368.15 1908.68,4368.24L1916.8,4368.38C1919.15,4368.48 1919.76,4368.35 1921.09,4367.84L1919.37,4381.39ZM1902.58,4273.54L1934.78,4289.49L1943.69,4271.49L1955.32,4277.23L1940.2,4307.79L1896.37,4286.09L1902.58,4273.54ZM1933.69,4222.23C1937.37,4217.13 1940.66,4214.82 1945.21,4214.29C1949.48,4213.77 1953.89,4215.04 1958.05,4218.05C1962.45,4221.22 1965.12,4225.4 1965.58,4229.91C1965.99,4233.96 1964.88,4237.4 1961.59,4241.95L1956.67,4248.74L1968.62,4257.37L1960.7,4268.33L1921.07,4239.71L1933.69,4222.23ZM1965.32,4186.37L1976.65,4198.44L1986.12,4189.57L1974.78,4177.49L1984.64,4168.23L2018.11,4203.89L2008.23,4213.14L1995,4199.02L1985.53,4207.92L1998.78,4222.03L1988.91,4231.28L1955.46,4195.62L1965.32,4186.37ZM2029.5,4281.88C2032.07,4280.32 2036.89,4274.04 2039.13,4274.04C2041.36,4274.04 2043.15,4274.04 2046.63,4273.37C2050.1,4272.7 2054.8,4274.83 2058.82,4276.95C2062.86,4279.08 2068.91,4277.62 2072.04,4276.16C2075.17,4274.72 2081,4274.04 2083.8,4274.83C2086.6,4275.61 2089.85,4283.34 2090.41,4285.46C2090.96,4287.59 2092.64,4295.2 2094.66,4294.53C2096.68,4293.86 2093.32,4287.48 2093.32,4287.48C2093.32,4287.48 2097.23,4292.52 2099.14,4295.09C2101.04,4297.67 2100.93,4302.59 2102.16,4306.85C2103.39,4311.1 2103.39,4320.55 2103.48,4325.11C2104.28,4323.69 2105.3,4317.6 2105.3,4317.6C2105.3,4317.6 2108.54,4321.74 2108.99,4323.31C2109.43,4324.88 2110.78,4331.03 2113.03,4336.85C2115.26,4342.68 2118.51,4346.26 2119.85,4351.86C2121.2,4357.46 2118.62,4360.59 2118.73,4366.86C2118.84,4373.14 2117.94,4378.39 2116.27,4381.52C2114.59,4384.66 2113.81,4389.14 2109.89,4393.62C2105.96,4398.1 2100.48,4397.2 2095,4400.78C2089.52,4404.37 2084.8,4403.7 2082.12,4405.48C2079.43,4407.28 2077.87,4407.28 2075.51,4409.75C2073.17,4412.2 2069.8,4411.98 2067.45,4410.08C2065.1,4408.17 2065.21,4401.79 2065.44,4398.78C2065.66,4395.74 2070.01,4388.81 2072.94,4387.35C2074.5,4386.57 2076.62,4387.13 2080.55,4386.79C2084.46,4386.45 2088.16,4384.66 2094.55,4379.52C2100.93,4374.36 2103.28,4368.21 2103.5,4364.96C2103.72,4361.71 2103.5,4357.23 2104.28,4356.23C2105.08,4355.21 2109.43,4355.93 2111.79,4356.45C2110.78,4353.76 2103.39,4353.69 2103.28,4352.87C2103.17,4352.04 2112.8,4345.14 2111.23,4343.35C2107.65,4345.7 2103.39,4350.07 2102.16,4349.84C2100.93,4349.62 2102.38,4347.16 2101.38,4344.13C2100.37,4341.12 2098.25,4335.51 2097.46,4331.93C2096.68,4328.35 2097.02,4323.98 2096.01,4321.4C2095,4318.83 2095.77,4318.43 2097.06,4314.24C2097.85,4312.56 2098.57,4306.9 2097.8,4303.37C2096.29,4307.51 2095.22,4316.53 2093.76,4316.43C2092.87,4316.03 2090.8,4308.31 2088.84,4307.18C2088.61,4311.21 2091.97,4317.6 2092.98,4321.63C2093.99,4325.65 2094.66,4331.93 2095.1,4336.07C2095.56,4340.21 2098.69,4343.91 2099.14,4347.94C2099.59,4351.97 2100.93,4360.59 2100.26,4366.75C2099.59,4372.9 2096.78,4375.37 2090.41,4380.41C2084.02,4385.45 2078.76,4385.22 2078.76,4385.22C2075.85,4385.22 2072.49,4384.66 2069.13,4385.57C2068.16,4385.82 2067.23,4391.82 2063.99,4392.28C2060.73,4392.73 2051.23,4394.4 2047.07,4393.95C2042.93,4393.51 2042.04,4390.03 2040.24,4390.15C2038.45,4392.5 2034.64,4392.61 2030.5,4393.06C2026.36,4393.51 2020.88,4391.94 2017.97,4390.26C2015.05,4388.58 2012.92,4387.47 2010.24,4385C2007.55,4382.53 2006.66,4379.18 2005.65,4376.04C2004.64,4372.9 2003.86,4367.87 2002.85,4363.84C2001.84,4359.8 2001.62,4353.43 2001.62,4348.38C2001.62,4343.35 2002.29,4336.63 2002.62,4333.83C2002.96,4331.03 2003.97,4323.76 2002.29,4324.2C2000.62,4324.65 2001.17,4332.49 2000.49,4332.6C1999.83,4332.72 1999.49,4327.56 1998.37,4328.01C1997.25,4328.45 1999.27,4335.4 1999.27,4337.2C1999.27,4338.98 1999.05,4341.67 1999.27,4348.95C1999.49,4356.23 2000.39,4363.84 2001.5,4368.88C2002.62,4373.91 2005.65,4381.3 2005.54,4381.97C2005.42,4382.64 2005.09,4382.2 2001.4,4383.1C1997.7,4383.99 1994.68,4381.08 1993.78,4382.43C1992.88,4383.77 1997.37,4385.67 2000.83,4386.45C2004.3,4387.23 2007.78,4386.23 2008.45,4385.78C2009.12,4385.34 2010.68,4386.12 2009.79,4387.13C2008.9,4388.14 2003.52,4388.92 2003.52,4388.92C1999.61,4389.03 1996.7,4385.89 1990.53,4382.09C1984.38,4378.28 1984.61,4371.68 1982.69,4368.65C1980.79,4365.63 1981.58,4359.13 1979,4353.21C1976.43,4347.27 1977.1,4338.2 1974.75,4337.54C1972.39,4336.85 1973.84,4345.03 1973.84,4345.03C1973.84,4345.03 1972.39,4342.68 1971.05,4340.44C1969.71,4338.2 1970.83,4334.4 1972.06,4332.15C1973.29,4329.91 1973.63,4327.01 1973.97,4321.97C1974.29,4316.93 1975.42,4316.48 1975.42,4316.48C1975.42,4316.48 1975.19,4319.4 1976.2,4319.05C1977.21,4318.72 1979.45,4305.73 1981.13,4304.27C1982.81,4302.82 1983.6,4301.47 1986.06,4299.47C1988.53,4297.44 1990.86,4296.88 1992.55,4296.88C1994.23,4296.88 1998.04,4296.21 1999.61,4295.32C2001.17,4294.41 2002.07,4289.28 2004.21,4287.92C2006.33,4286.58 2008.45,4286.37 2010.47,4285.02C2012.48,4283.67 2015.62,4283.9 2018.86,4283.9C2022.11,4283.9 2026.92,4283.45 2029.5,4281.88M2140.51,4234.82L2168.95,4288.11C2163.24,4288.39 2160.15,4291.47 2158.82,4293.02C2157.47,4294.59 2158.59,4297.72 2156.35,4297.05C2154.11,4296.37 2149.84,4296.61 2146.94,4297.95C2144.03,4299.29 2139.33,4302.43 2136.2,4302.2C2133.06,4301.98 2125.2,4301.42 2122.76,4303.25C2118.88,4306.16 2120.75,4304 2117.39,4303.32C2115.67,4302.98 2112.95,4302.75 2110.59,4302.61L2140.51,4234.82ZM2188.71,4533.24C2184.45,4535.59 2184.73,4534.41 2184.79,4533.35C2184.9,4531.56 2188.31,4530.55 2190.51,4529.66C2194.08,4528.21 2193.74,4528.99 2196.43,4528.31C2199.12,4527.64 2201.69,4525.96 2202.92,4525.85C2203.27,4529.66 2196.88,4530.33 2195.21,4531.22C2192.19,4532.83 2190.98,4531.98 2188.71,4533.24M2161.73,4550.1L2164.19,4550.77C2164.19,4550.77 2165.94,4554.81 2168.89,4553.74C2171.8,4552.66 2174.21,4550.31 2175.99,4548.98C2177.78,4547.63 2181.2,4548.28 2182.32,4549.42C2183.44,4550.53 2184.34,4563.52 2185.01,4567.78C2185.04,4567.97 2185.07,4568.21 2185.1,4568.45L2152.6,4568.42C2152.87,4564.66 2153.37,4561.25 2154.11,4559.05C2155.9,4553.67 2160.38,4547.4 2160.38,4547.4C2160.38,4547.4 2159.26,4549.42 2161.73,4550.1M2189.15,4558.43C2189.38,4564.25 2189.6,4570.3 2190.49,4575C2191.4,4579.71 2193.07,4586.08 2194.64,4589.34C2196.21,4592.58 2198.9,4597.28 2200.12,4599.18C2201.36,4601.08 2200.91,4601.31 2199.91,4601.53C2198.9,4601.75 2198.23,4599.52 2196.21,4596.94C2194.2,4594.37 2191.4,4587.66 2189.38,4582.05C2187.36,4576.45 2186.36,4570.74 2185.8,4567.28C2185.24,4563.81 2185.35,4551.04 2185.24,4546.68C2185.12,4542.3 2183.89,4540.28 2182.89,4538.38C2181.88,4536.49 2180.87,4535.37 2179.31,4535.47C2177.73,4535.59 2178.29,4537.49 2177.06,4537.71C2175.83,4537.94 2175.6,4536.59 2175.6,4535.37C2175.6,4535.37 2176.16,4534.36 2177.63,4533.45C2179.08,4532.57 2180.53,4532.78 2182.65,4534.36C2184.79,4535.92 2187.93,4541.97 2189.49,4544.55C2191.73,4546.68 2193.53,4548.13 2195.31,4550.81C2197.1,4553.51 2197.65,4554.85 2197.65,4558.1C2196.33,4554.85 2195.17,4553.63 2193.18,4551.48C2191.73,4549.93 2189.05,4547.36 2188.38,4547.23C2187.93,4548.13 2188.93,4552.61 2189.15,4558.43M2252.41,4429.89C2253.54,4426.2 2254.2,4422.51 2254.2,4422.51C2254.77,4423.64 2255.22,4425.19 2255.65,4426.98C2256.11,4428.78 2255.32,4431.81 2254.99,4433.14C2254.66,4434.49 2250.51,4446.92 2249.28,4450.16C2248.05,4453.4 2244.24,4466.95 2243,4469.64C2241.78,4472.32 2236.18,4481.16 2231.48,4487.89C2226.78,4494.61 2226.99,4495.62 2225.3,4499.65C2223.64,4503.69 2221.29,4508.48 2217.26,4511.74C2213.22,4514.98 2212.34,4515.65 2210.53,4518.12C2208.75,4520.58 2206.61,4522.6 2204.05,4523.6C2202.93,4524.29 2201.03,4524.73 2199.91,4524.61C2199.83,4524.03 2201.65,4522.73 2203.54,4521.21C2204.91,4520.09 2206.32,4518.85 2207.08,4517.68C2207.08,4517.68 2209.86,4511.06 2214.46,4507.48C2219.04,4503.9 2218.71,4500.65 2220.84,4497.85C2222.97,4495.05 2223.76,4493.38 2224.88,4491.03C2222.52,4492.25 2216.14,4499.1 2214.91,4497.85C2216.82,4495.73 2217.89,4494.02 2219.16,4492.71C2221.28,4490.52 2223.16,4489.13 2224.98,4486.33C2227.02,4483.19 2229.82,4484.13 2233.15,4478.93C2236.97,4473 2237.63,4466.95 2239.65,4462.03C2241.65,4457.11 2245.81,4452.4 2246.59,4448.14C2247.38,4443.9 2247.11,4441.7 2248.61,4439.3C2250.28,4436.61 2251.29,4433.6 2252.41,4429.89M2260.36,4373.35C2258.36,4374.93 2257.9,4378.39 2258.12,4380.07C2256.11,4381.76 2252.63,4381.08 2252.08,4378.28C2251.75,4374.93 2253.42,4373.8 2254.43,4372.69C2255.43,4371.56 2256.79,4367.87 2260.48,4368.54C2260.48,4368.54 2257.68,4373.02 2260.36,4373.35M2230.58,4428.44C2232.15,4425.19 2234.16,4419.82 2236.4,4415.56C2238.64,4411.31 2239.54,4406.16 2239.54,4406.16C2240.09,4403.58 2241.78,4403.13 2242.11,4404.26C2242.45,4405.36 2244.57,4405.71 2243.9,4410.64C2243.24,4415.56 2241.44,4420.16 2238.98,4424.52C2236.52,4428.88 2236.85,4433.37 2235.39,4440.31C2233.94,4447.25 2231.71,4447.81 2230.69,4452.39C2229.68,4456.99 2225.78,4459.4 2222.85,4463.03C2220.61,4465.82 2218.58,4472.39 2217.26,4476.7C2216.03,4480.76 2214.68,4483.08 2211.54,4485.21C2208.41,4487.33 2204.28,4497.63 2202.15,4500.31C2200.01,4503 2198.33,4505.58 2194.42,4508.15C2193.74,4504.8 2196.44,4500.38 2199.01,4494.84C2202.08,4488.18 2205.67,4484.29 2206.07,4482.28C2206.61,4479.38 2208.41,4475.69 2207.3,4472.55C2205.28,4477.15 2203.93,4482.52 2201.59,4485.21C2199.23,4487.89 2196.76,4492.37 2194.42,4496.73C2192.06,4501.1 2189.82,4501.77 2186.13,4504.57C2182.51,4507.31 2179.42,4510.17 2177.85,4512.86C2176.27,4515.55 2171.92,4518.9 2170,4520.03C2168.11,4521.15 2164.97,4520.92 2162.4,4520.48C2165.19,4518.23 2170.23,4512.52 2173.36,4509.16C2176.5,4505.81 2183.22,4497.63 2185.01,4493.73C2186.8,4489.8 2195.21,4477.37 2199.46,4470.66C2203.7,4463.94 2208.75,4451.84 2211.54,4446.8C2214.35,4441.76 2216.81,4434.04 2219.61,4427.21C2222.41,4420.39 2227.67,4404.92 2230.47,4396.53C2233.27,4388.14 2232.15,4383.21 2233.38,4382.43C2234.62,4381.64 2235.07,4384.22 2236.07,4385.57C2237.08,4386.9 2237.52,4385.34 2237.75,4388.92C2237.97,4392.5 2236.4,4403.24 2235.73,4407.28C2235.07,4411.31 2231.13,4419.82 2229.01,4425.65C2226.89,4431.47 2224.77,4436.28 2222.64,4440.76C2226.1,4437.51 2229.01,4431.69 2230.58,4428.44M2207.17,4367.87C2209.42,4366.08 2210.43,4364.16 2211.78,4362.5C2213.11,4360.82 2213.86,4358.21 2214.68,4358.12C2215.7,4358.01 2216.03,4358.58 2216.03,4359.36C2216.03,4360.14 2213.9,4362.83 2212.78,4364.06C2211.66,4365.3 2209.53,4367.76 2207.17,4367.87M2216.59,4382.43C2217.93,4376.82 2218.71,4365.85 2218.71,4365.85C2218.94,4364.62 2220.39,4364.51 2221.07,4365.85C2221.74,4367.2 2223.41,4371.34 2225.1,4373.46C2226.78,4375.6 2227.67,4375.6 2229.47,4377.5C2231.25,4379.4 2230.47,4381.42 2229.91,4385.78C2229.35,4390.15 2224.2,4406.39 2222.18,4413.33C2220.17,4420.26 2212.45,4438.4 2207.64,4449.72C2202.81,4461.03 2193.74,4474.34 2191.5,4478.05C2189.26,4481.73 2183.89,4490.12 2179.98,4496.19C2176.05,4502.21 2172.81,4506.03 2168.22,4510.38C2163.63,4514.76 2158.7,4519.47 2156.68,4521.59C2154.68,4523.72 2152.76,4524.06 2151.54,4523.72C2150.31,4523.39 2148.18,4521.7 2145.49,4520.7C2142.8,4519.69 2140.64,4520.6 2140.01,4519.57C2139.45,4518.69 2140.12,4517.89 2140.78,4517.33C2141.46,4516.77 2150.63,4508.83 2153.67,4505.69C2156.68,4502.55 2162.06,4497.3 2167.55,4490.12C2173.03,4482.96 2181.66,4467.3 2187.14,4457.99C2192.63,4448.7 2203.6,4424.75 2206.4,4418.03C2209.21,4411.31 2215.24,4388.03 2216.59,4382.43M2165.42,4340.55C2167.43,4347.96 2170.68,4357.13 2174.37,4363.63C2178.07,4370.1 2187.92,4389.59 2189.72,4393.4C2191.5,4397.2 2200.8,4411.31 2200.8,4411.31C2201.8,4412.09 2202.15,4414.67 2201.36,4415.23C2200.58,4415.8 2199.01,4420.26 2196.55,4424.3C2194.08,4428.33 2193.64,4432.02 2192.63,4432.69C2191.62,4433.37 2191.5,4434.04 2190.5,4429.01C2189.49,4423.96 2183.22,4415.8 2181.32,4411.75C2179.42,4407.73 2174.93,4397.09 2167.99,4386.23C2161.05,4375.39 2152.43,4352.41 2148.85,4341.78C2145.26,4331.14 2145.72,4324.44 2145.15,4318.16C2144.58,4311.89 2145.41,4307.76 2146.83,4306.74C2148.31,4305.66 2151.95,4303.92 2155.01,4301.14C2158.16,4298.27 2160.16,4295.88 2161.05,4294.21C2161.94,4292.52 2163.63,4291.17 2166.31,4290.28C2169,4289.38 2171.47,4290.39 2172.13,4291.74C2172.81,4293.09 2172.01,4296.99 2170.46,4295.88C2169.68,4295.32 2168.78,4294.09 2168.22,4295.09C2167.66,4296.1 2166.98,4296.1 2166.76,4295.09C2166.53,4294.09 2166.1,4293.86 2165.42,4295.2C2164.74,4296.54 2163.97,4299.57 2162.85,4301.6C2161.73,4303.6 2161.39,4305.28 2160.82,4313.02C2160.27,4320.73 2163.41,4333.17 2165.42,4340.55M2182.66,4139.3L2238.17,4238.9C2233.8,4237.21 2228.92,4236.24 2223.52,4236.38C2201.92,4236.92 2195.54,4247.56 2193.08,4251.37C2193.04,4251.44 2193,4251.51 2192.96,4251.57L2159.71,4191.3L2182.66,4139.3ZM2245.69,4162.51C2252.9,4150 2266.05,4146.16 2278.07,4153.09C2287.97,4158.8 2291.87,4168.77 2288.22,4178.73L2276.12,4172.1C2277.13,4168.4 2275.75,4165.2 2272.37,4163.24C2267.36,4160.35 2262.29,4162.58 2258.36,4169.41C2254.01,4176.96 2254.73,4182.83 2260.33,4186.07C2263.72,4188.02 2267.19,4187.85 2269.89,4185.54L2264.64,4182.53L2269.76,4173.64L2286.61,4183.35L2273.83,4205.51L2265.86,4200.92L2267.06,4197.02C2262.03,4198.07 2257.38,4197.23 2252.66,4194.51C2241.62,4188.14 2238.7,4174.65 2245.69,4162.51M2330.45,4193.52C2336.28,4199 2338.19,4201.57 2339.13,4205.13C2340.14,4209.04 2338.85,4213.37 2335.72,4216.72C2332.12,4220.54 2327.93,4221.74 2322.81,4220.48C2324.42,4224.46 2323.84,4227.94 2320.71,4232.18L2316.12,4238.38C2314.75,4240.15 2314.51,4240.71 2314.22,4242.04L2303.96,4232.4C2304.22,4231.22 2304.45,4230.77 2305.97,4228.85L2308.01,4226.26C2312.28,4221.1 2312.43,4217.91 2308.32,4214.22L2304.05,4210.21L2292.94,4222.05L2282.78,4212.51L2314.6,4178.64L2330.45,4193.52ZM2374.37,4246.91L2345.06,4286.65L2336.88,4274.43L2341.07,4269.19L2332.96,4257.03L2326.46,4258.86L2318.43,4246.87L2366.26,4234.74L2374.37,4246.91ZM2399.69,4294.85C2403.81,4305.22 2400.46,4315.31 2390.83,4321.29L2385.47,4308.5C2389.01,4306.28 2390.24,4302.57 2388.78,4298.87C2386.81,4293.88 2380.71,4292.32 2373.85,4295.04C2367.05,4297.73 2363.4,4303.45 2365.35,4308.37C2366.87,4312.27 2370.28,4313.69 2375.17,4312.59L2380.4,4325.79C2375.83,4327.09 2372.48,4327.2 2368.82,4326.25C2362.55,4324.61 2357.28,4319.66 2354.6,4312.84C2349.57,4300.15 2355.57,4287.28 2368.92,4282.01C2381.81,4276.9 2394.73,4282.27 2399.69,4294.85M2413.51,4347.19L2367.99,4356.63L2365.07,4342.51L2410.59,4333.07L2413.51,4347.19ZM2418.36,4407.04L2406.73,4407.44L2405.87,4382.22L2400.21,4382.42L2400.99,4404.5L2390.33,4404.86L2389.57,4382.78L2383.36,4383L2384.28,4409.34L2371.95,4409.75L2370.55,4369.5L2417.01,4367.9L2418.36,4407.04ZM2252.41,4320.56C2253.54,4316.98 2254.2,4316.53 2256.68,4315.19C2259.14,4313.85 2260.53,4310.76 2260.53,4306.74C2260.53,4303.34 2264.82,4295.56 2266.58,4289.87L2413.97,4554.33C2441.62,4507.68 2456.59,4455.9 2456.59,4397.74C2456.59,4231.83 2328.41,4096.98 2165.19,4086.32L2136.69,4149.57L2127.52,4132.93L2108.78,4175.4L2117.61,4191.93L2081.62,4271.79C2078.18,4271.78 2074.93,4271.22 2072.21,4272.59C2069.08,4274.16 2064.76,4277.12 2060.07,4274.66C2055.36,4272.2 2053.34,4269.73 2049.54,4270.63C2045.73,4271.53 2042.82,4272.59 2040.13,4272.37C2037.44,4272.15 2034.09,4273.77 2034.09,4273.77C2030.51,4277.57 2029.38,4280.26 2023.33,4280.26C2022.85,4280.26 2022.38,4280.26 2021.93,4280.25L2114.14,4087.29C2033.17,4098.36 1989.68,4123.67 1953.86,4152.2C1834.68,4247.17 1812.3,4384.85 1861.13,4521.61L1969.16,4521.4L1962.94,4535.2L2007.95,4535.2L2014.08,4521.32L2102.01,4521.15C2107.05,4526.03 2115.64,4533.11 2130.16,4539.28C2136.37,4542.14 2143.47,4543.59 2150.36,4544.05C2148.13,4545.61 2142.68,4553 2140.9,4557.93C2139.85,4560.81 2139.42,4564.84 2139.06,4568.4L1889.61,4568.19C1913.51,4609.34 1951.62,4644.43 2001.53,4670.6C2131.04,4738.52 2278.09,4711.22 2382.46,4595.15L2341.4,4520.7L2360.62,4520.66L2338.55,4484.09L2321.25,4484.16L2316.88,4476.23C2315.74,4464.56 2312.43,4464.77 2312.43,4464.77C2312.43,4464.77 2313.33,4456.48 2312.65,4449.54C2311.98,4442.61 2305.71,4427.82 2304.37,4417.97C2303.02,4408.13 2303.7,4407 2302.8,4397.82C2301.9,4388.64 2297.76,4380.41 2297.53,4377.27C2297.3,4374.14 2295.64,4371.68 2293.62,4370.1C2291.6,4368.54 2292.54,4367.14 2288.07,4366.47C2288.07,4366.47 2285.55,4366.23 2281.86,4366.42C2277.2,4366.64 2275.31,4365.69 2275.31,4365.69C2275.31,4365.69 2272.73,4358.35 2269.59,4355C2266.46,4351.63 2263.38,4350.57 2259.8,4349.68C2256.23,4348.78 2256.68,4348.56 2253.3,4346.99C2249.95,4345.41 2248.61,4346.1 2245.47,4343.41C2244.47,4342.55 2243.22,4341.49 2241.97,4340.44L2238.69,4334.48C2240.26,4333.32 2242.52,4331.76 2244.56,4330.86C2248.15,4329.3 2251.29,4324.15 2252.41,4320.56M2356.57,4250.11L2343.23,4254.09L2347.8,4260.93L2356.57,4250.11ZM2324.16,4208.65C2326.35,4206.31 2325.88,4203.86 2322.63,4200.82L2317.45,4195.95L2311.07,4202.76L2316.24,4207.61C2319.49,4210.67 2321.96,4210.99 2324.16,4208.65" style="fill:rgb(16,89,128);"/>
            </g>
            <g transform="matrix(0.429052,0,0,0.429052,3054.94,204.215)">
                <path d="M1288.2,230.265L1441.29,230.265L1433.49,280.053L1331.06,280.053L1308.92,421.299L1397.09,421.299L1389.25,471.307L1301.08,471.307L1271.13,662.34L1220.47,662.34L1288.2,230.265ZM1472.84,230.265L1523.5,230.265L1455.76,662.34L1405.1,662.34L1472.84,230.265ZM1723.92,230.265L1716.11,280.053L1656.02,280.053L1596.09,662.34L1545.42,662.34L1605.36,280.053L1545.04,280.053L1552.84,230.265L1723.92,230.265ZM1752.17,230.265L1804.15,230.265L1828.75,540.611L1877.26,231.144L1923.21,230.486L1855.51,662.34L1803.53,662.34L1780.13,359.669L1732.68,662.34L1684.43,662.34L1752.17,230.265ZM2077.92,421.299L2070.09,471.304L1981.91,471.304L1959.77,612.554L2062.2,612.554L2054.39,662.341L1901.3,662.341L1969.04,230.266L2122.13,230.266L2114.32,280.054L2011.9,280.054L1989.75,421.299L2077.92,421.299ZM2140.09,309.881C2149.14,252.127 2182.18,223.248 2239.21,223.248C2296.24,223.248 2320.22,252.127 2311.16,309.881L2302.81,363.181L2252.15,363.181L2260.5,309.881C2264.33,285.465 2254.7,273.181 2231.62,273.036L2231.18,273.036C2208.08,273.036 2194.6,285.315 2190.75,309.881L2184.39,350.456C2180.93,372.54 2197.89,398.636 2235.28,428.756C2269.16,456.102 2283.14,488.631 2277.23,526.356L2268.39,582.723C2259.31,640.627 2226.34,669.577 2169.46,669.577C2112.31,669.431 2088.26,640.481 2097.32,582.723L2105.67,529.427L2156.33,529.427L2147.98,582.723C2144.13,607.29 2153.9,619.573 2177.29,619.573C2200.39,619.573 2213.87,607.29 2217.73,582.723L2225.7,531.84C2229.44,508.006 2212.61,481.031 2175.22,450.911C2141.35,423.569 2127.45,390.523 2133.52,351.773L2140.09,309.881ZM2348.19,309.881C2357.24,252.127 2390.28,223.248 2447.31,223.248C2504.33,223.248 2528.32,252.127 2519.26,309.881L2510.91,363.181L2460.24,363.181L2468.6,309.881C2472.42,285.465 2462.8,273.181 2439.72,273.036L2439.28,273.036C2416.17,273.036 2402.7,285.315 2398.85,309.881L2392.49,350.456C2389.02,372.54 2405.99,398.636 2443.38,428.756C2477.26,456.102 2491.24,488.631 2485.32,526.356L2476.49,582.723C2467.41,640.627 2434.43,669.577 2377.55,669.577C2320.4,669.431 2296.36,640.481 2305.41,582.723L2313.77,529.427L2364.43,529.427L2356.07,582.723C2352.22,607.29 2361.99,619.573 2385.39,619.573C2408.49,619.573 2421.97,607.29 2425.82,582.723L2433.8,531.84C2437.54,508.006 2420.71,481.031 2383.32,450.911C2349.45,423.569 2335.55,390.523 2341.62,351.773L2348.19,309.881ZM308.009,309.881C317.063,252.127 350.105,223.248 407.13,223.248C464.155,223.248 488.138,252.127 479.084,309.881L470.73,363.181L420.063,363.181L428.417,309.881C432.247,285.465 422.617,273.181 399.538,273.036L399.101,273.036C375.997,273.036 362.522,285.315 358.672,309.881L352.309,350.456C348.847,372.54 365.813,398.636 403.201,428.756C437.08,456.102 451.059,488.631 445.147,526.356L436.309,582.723C427.234,640.627 394.255,669.577 337.372,669.577C280.226,669.431 256.18,640.481 265.234,582.723L273.588,529.427L324.251,529.427L315.897,582.723C312.047,607.29 321.817,619.573 345.213,619.573C368.313,619.573 381.792,607.29 385.642,582.723L393.622,531.84C397.355,508.006 380.53,481.031 343.142,450.911C309.267,423.569 295.367,390.523 301.442,351.773L308.009,309.881ZM636.515,309.881C640.344,285.465 630.715,273.181 607.635,273.036L607.198,273.036C584.094,273.036 570.619,285.315 566.769,309.881L523.994,582.723C520.144,607.29 529.84,619.573 553.094,619.573C576.34,619.573 589.89,607.29 593.74,582.723L636.515,309.881ZM644.406,582.723C635.352,640.481 602.302,669.431 545.252,669.577C488.227,669.577 464.256,640.627 473.331,582.723L516.106,309.881C525.16,252.127 558.202,223.248 615.227,223.248C672.248,223.248 696.235,252.127 687.181,309.881L644.406,582.723ZM741.07,230.265L793.049,230.265L817.649,540.611L866.166,231.144L912.112,230.486L844.407,662.34L792.428,662.34L769.032,359.669L721.582,662.34L673.332,662.34L741.07,230.265ZM1061.48,309.881C1065.31,285.465 1055.68,273.181 1032.6,273.036L1032.16,273.036C1009.06,273.036 995.59,285.315 991.736,309.881L948.961,582.723C945.111,607.29 954.807,619.573 978.061,619.573C1001.31,619.573 1014.86,607.29 1018.71,582.723L1061.48,309.881ZM1069.37,582.723C1060.32,640.481 1027.27,669.431 970.22,669.577C913.195,669.577 889.224,640.627 898.299,582.723L941.074,309.881C950.128,252.127 983.17,223.248 1040.19,223.248C1097.21,223.248 1121.2,252.127 1112.15,309.881L1069.37,582.723Z" style="fill:rgb(16,89,128);fill-rule:nonzero;"/>
            </g>
        </g>
        <g transform="matrix(0.701083,0,0,0.701083,89.675,-436.137)">
            <path d="M430.497,1214.66L551.473,1214.66L551.473,1323.32L431.057,1323.32L431.057,1457.73L300,1457.73L300,1061.2L567.715,1061.2L567.715,1172.66L430.497,1172.66L430.497,1214.66ZM779.446,1468.93C748.455,1468.93 721.478,1464.64 698.515,1456.05C675.552,1447.46 656.416,1435.7 641.108,1420.77C625.799,1405.83 614.411,1388.19 606.943,1367.84C599.476,1347.49 595.742,1325.56 595.742,1302.03L595.742,1061.2L729.039,1061.2L729.039,1287.47C729.039,1306.51 733.613,1321.36 742.761,1332C751.909,1342.64 764.884,1347.96 781.686,1347.96C798.488,1347.96 811.463,1342.64 820.611,1332C829.759,1321.36 834.333,1306.51 834.333,1287.47L834.333,1061.2L967.07,1061.2L967.07,1302.03C967.07,1325.56 963.056,1347.49 955.028,1367.84C947.001,1388.19 935.146,1405.83 919.464,1420.77C903.782,1435.7 884.272,1447.46 860.936,1456.05C837.6,1464.64 810.436,1468.93 779.446,1468.93ZM999.243,1061.2L1131.98,1061.2L1245.12,1262.27L1247.36,1262.27L1241.75,1061.2L1368.33,1061.2L1368.33,1457.73L1232.23,1457.73L1122.46,1268.43L1120.22,1268.43L1125.82,1457.73L999.243,1457.73L999.243,1061.2ZM1394.98,1259.47C1394.98,1227.73 1400.58,1198.98 1411.78,1173.22C1422.98,1147.45 1438.29,1125.42 1457.71,1107.13C1477.12,1088.83 1499.99,1074.74 1526.32,1064.84C1552.64,1054.95 1580.74,1050 1610.61,1050C1641.23,1050 1670.16,1054.95 1697.42,1064.84C1724.68,1074.74 1747.45,1088.09 1765.75,1104.89L1683.98,1203.46C1676.51,1193.75 1667.17,1186.38 1655.97,1181.34C1644.77,1176.3 1632.26,1173.78 1618.45,1173.78C1607.25,1173.78 1596.79,1175.74 1587.08,1179.66C1577.38,1183.58 1568.88,1189.27 1561.6,1196.74C1554.32,1204.21 1548.63,1213.26 1544.52,1223.9C1540.41,1234.54 1538.36,1246.4 1538.36,1259.47C1538.36,1272.54 1540.51,1284.2 1544.8,1294.47C1549.09,1304.74 1554.88,1313.61 1562.16,1321.08C1569.44,1328.54 1577.94,1334.24 1587.64,1338.16C1597.35,1342.08 1607.62,1344.04 1618.45,1344.04C1633.76,1344.04 1646.92,1340.86 1657.93,1334.52C1668.95,1328.17 1677.63,1320.7 1683.98,1312.11L1765.75,1410.13C1747.83,1428.05 1725.8,1442.33 1699.66,1452.97C1673.52,1463.61 1643.84,1468.93 1610.61,1468.93C1580.74,1468.93 1552.64,1463.89 1526.32,1453.81C1499.99,1443.73 1477.12,1429.45 1457.71,1410.97C1438.29,1392.48 1422.98,1370.45 1411.78,1344.88C1400.58,1319.3 1394.98,1290.83 1394.98,1259.47ZM2013.45,1457.73L1880.16,1457.73L1880.16,1173.78L1782.7,1173.78L1782.7,1061.2L2110.91,1061.2L2110.91,1173.78L2013.45,1173.78L2013.45,1457.73ZM2146.37,1061.2L2280.79,1061.2L2280.79,1457.73L2146.37,1457.73L2146.37,1061.2ZM2316.26,1257.23C2316.26,1225.49 2321.87,1196.83 2333.07,1171.26C2344.27,1145.68 2359.67,1123.93 2379.27,1106.01C2398.88,1088.09 2422.12,1074.27 2449,1064.56C2475.89,1054.85 2505.01,1050 2536.37,1050C2567.74,1050 2596.86,1054.85 2623.74,1064.56C2650.63,1074.27 2673.97,1088.09 2693.75,1106.01C2713.54,1123.93 2729.04,1145.68 2740.24,1171.26C2751.44,1196.83 2757.04,1225.49 2757.04,1257.23C2757.04,1288.96 2751.44,1317.9 2740.24,1344.04C2729.04,1370.17 2713.54,1392.48 2693.75,1410.97C2673.97,1429.45 2650.63,1443.73 2623.74,1453.81C2596.86,1463.89 2567.74,1468.93 2536.37,1468.93C2505.01,1468.93 2475.89,1463.89 2449,1453.81C2422.12,1443.73 2398.88,1429.45 2379.27,1410.97C2359.67,1392.48 2344.27,1370.17 2333.07,1344.04C2321.87,1317.9 2316.26,1288.96 2316.26,1257.23ZM2457.96,1257.23C2457.96,1270.3 2459.92,1282.24 2463.84,1293.07C2467.76,1303.9 2473.18,1313.23 2480.09,1321.08C2486.99,1328.92 2495.3,1334.98 2505.01,1339.28C2514.72,1343.57 2525.17,1345.72 2536.37,1345.72C2547.58,1345.72 2557.94,1343.57 2567.46,1339.28C2576.98,1334.98 2585.29,1328.92 2592.38,1321.08C2599.47,1313.23 2604.98,1303.9 2608.9,1293.07C2612.82,1282.24 2614.78,1270.3 2614.78,1257.23C2614.78,1244.53 2612.82,1232.86 2608.9,1222.22C2604.98,1211.58 2599.47,1202.62 2592.38,1195.34C2585.29,1188.06 2576.98,1182.36 2567.46,1178.26C2557.94,1174.15 2547.58,1172.1 2536.37,1172.1C2525.17,1172.1 2514.72,1174.15 2505.01,1178.26C2495.3,1182.36 2486.99,1188.06 2480.09,1195.34C2473.18,1202.62 2467.76,1211.58 2463.84,1222.22C2459.92,1232.86 2457.96,1244.53 2457.96,1257.23ZM2791.99,1061.2L2924.73,1061.2L3037.86,1262.27L3040.1,1262.27L3034.5,1061.2L3161.08,1061.2L3161.08,1457.73L3024.98,1457.73L2915.21,1268.43L2912.97,1268.43L2918.57,1457.73L2791.99,1457.73L2791.99,1061.2ZM3349.95,1061.2L3491.65,1061.2L3646.23,1457.73L3501.17,1457.73L3480.45,1399.49L3354.43,1399.49L3334.83,1457.73L3193.69,1457.73L3349.95,1061.2ZM3418.84,1199.54L3386.36,1297.55L3450.77,1297.55L3418.84,1199.54ZM3671.19,1061.2L3805.61,1061.2L3805.61,1343.48L3937.23,1343.48L3937.23,1457.73L3671.19,1457.73L3671.19,1061.2Z" style="fill:rgb(16,89,128);fill-rule:nonzero;"/>
        </g>
        <g transform="matrix(1.56303,0,0,1.56303,-221.427,-1988.91)">
            <path d="M464.096,1859.84L585.072,1859.84L585.072,1968.49L464.656,1968.49L464.656,2102.91L333.599,2102.91L333.599,1706.38L601.314,1706.38L601.314,1817.83L464.096,1817.83L464.096,1859.84ZM635.781,1706.38L770.199,1706.38L770.199,2102.91L635.781,2102.91L635.781,1706.38ZM1022.46,2112.99C991.097,2112.99 962.067,2108.14 935.37,2098.43C908.673,2088.72 885.524,2074.81 865.921,2056.7C846.318,2038.59 830.916,2016.66 819.715,1990.89C808.514,1965.13 802.913,1936.38 802.913,1904.64C802.913,1872.9 808.514,1844.15 819.715,1818.39C830.916,1792.63 846.225,1770.6 865.641,1752.3C885.057,1734.01 907.833,1719.91 933.97,1710.02C960.107,1700.12 988.11,1695.17 1017.98,1695.17C1048.97,1695.17 1078.38,1700.22 1106.19,1710.3C1134.01,1720.38 1156.69,1734.19 1174.24,1751.74L1096.39,1845.27C1088.18,1835.57 1078.47,1827.82 1067.27,1822.03C1056.07,1816.24 1042.25,1813.35 1025.82,1813.35C1014.99,1813.35 1004.45,1815.5 994.178,1819.79C983.91,1824.09 974.855,1830.25 967.014,1838.27C959.173,1846.3 952.826,1855.92 947.972,1867.12C943.118,1878.32 940.691,1890.83 940.691,1904.64C940.691,1932.27 947.878,1954.77 962.253,1972.13C976.629,1989.49 999.685,1998.17 1031.42,1998.17C1037.02,1998.17 1042.81,1997.71 1048.79,1996.77C1054.76,1995.84 1059.43,1994.44 1062.79,1992.57L1062.79,1962.33L998.938,1962.33L998.938,1857.6L1180.96,1857.6L1180.96,2074.34C1171.63,2079.95 1160.89,2085.08 1148.76,2089.75C1136.62,2094.41 1123.74,2098.43 1110.11,2101.79C1096.48,2105.15 1082.2,2107.86 1067.27,2109.91C1052.33,2111.96 1037.4,2112.99 1022.46,2112.99ZM1466.95,1952.25L1358.29,1952.25L1358.29,2102.91L1225,2102.91L1225,1706.38L1357.73,1706.38L1357.73,1840.79L1466.39,1840.79L1466.39,1706.38L1600.24,1706.38L1600.24,2102.91L1466.95,2102.91L1466.95,1952.25ZM1867.59,2102.91L1734.29,2102.91L1734.29,1818.95L1636.84,1818.95L1636.84,1706.38L1965.04,1706.38L1965.04,1818.95L1867.59,1818.95L1867.59,2102.91Z" style="fill:rgb(16,89,128);fill-rule:nonzero;"/>
        </g>
        <g transform="matrix(2.25018e-16,-3.67482,3.67482,2.25018e-16,1186.44,6938.63)">
            <text x="1535.53px" y="452.692px" style="font-family:'AvenirNext-Heavy', 'Avenir Next', sans-serif;font-weight:900;font-size:36.945px;fill:rgb(16,89,128);">A<tspan x="1564.57px 1594.16px " y="452.692px 452.692px ">ND</tspan></text>
        </g>
        <g transform="matrix(1.13137,0,0,1.13137,-87.473,-1170.78)">
            <path d="M472.977,2419.91L593.953,2419.91L593.953,2528.56L473.537,2528.56L473.537,2662.98L342.48,2662.98L342.48,2266.45L610.195,2266.45L610.195,2377.9L472.977,2377.9L472.977,2419.91ZM646.658,2266.45L781.075,2266.45L781.075,2662.98L646.658,2662.98L646.658,2266.45ZM1041.15,2662.98L907.857,2662.98L907.857,2379.02L810.404,2379.02L810.404,2266.45L1138.61,2266.45L1138.61,2379.02L1041.15,2379.02L1041.15,2662.98ZM1171.01,2266.45L1303.75,2266.45L1416.88,2467.51L1419.12,2467.51L1413.52,2266.45L1540.1,2266.45L1540.1,2662.98L1404,2662.98L1294.23,2473.68L1291.99,2473.68L1297.59,2662.98L1171.01,2662.98L1171.01,2266.45ZM1580.06,2266.45L1852.82,2266.45L1852.82,2377.34L1705.52,2377.34L1705.52,2411.51L1843.86,2411.51L1843.86,2515.12L1705.52,2515.12L1705.52,2552.09L1862.34,2552.09L1862.34,2662.98L1580.06,2662.98L1580.06,2266.45ZM2072.53,2674.18C2056.47,2674.18 2040.7,2672.78 2025.2,2669.98C2009.71,2667.18 1994.77,2663.07 1980.4,2657.66C1966.02,2652.24 1952.49,2645.9 1939.79,2638.62C1927.1,2631.34 1915.71,2623.22 1905.63,2614.25L1986.84,2525.76C1996.17,2535.84 2008.59,2544.8 2024.08,2552.65C2039.58,2560.49 2055.54,2564.41 2071.97,2564.41C2079.44,2564.41 2086.25,2563.1 2092.41,2560.49C2098.57,2557.87 2101.65,2553.02 2101.65,2545.93C2101.65,2542.19 2100.63,2539.02 2098.57,2536.4C2096.52,2533.79 2092.88,2531.08 2087.65,2528.28C2082.43,2525.48 2075.24,2522.4 2066.09,2519.04C2056.94,2515.68 2045.46,2511.76 2031.64,2507.28C2018.2,2502.8 2005.32,2497.48 1993,2491.32C1980.68,2485.16 1969.76,2477.6 1960.24,2468.64C1950.71,2459.67 1943.15,2448.94 1937.55,2436.43C1931.95,2423.92 1929.15,2408.89 1929.15,2391.35C1929.15,2366.7 1934.19,2345.79 1944.27,2328.62C1954.36,2311.44 1967.33,2297.35 1983.2,2286.33C1999.07,2275.32 2016.9,2267.38 2036.69,2262.53C2056.47,2257.67 2076.08,2255.25 2095.49,2255.25C2121.63,2255.25 2148.23,2260.29 2175.3,2270.37C2202.37,2280.45 2226.18,2295.01 2246.71,2314.05L2163.82,2398.63C2154.86,2387.42 2143.85,2378.93 2130.78,2373.14C2117.71,2367.36 2105.95,2364.46 2095.49,2364.46C2085.78,2364.46 2077.94,2365.86 2071.97,2368.66C2066,2371.46 2063.01,2376.04 2063.01,2382.38C2063.01,2388.36 2066.09,2392.84 2072.25,2395.83C2078.41,2398.81 2088.4,2402.55 2102.21,2407.03C2116.4,2411.51 2131.34,2416.74 2147.02,2422.71C2162.7,2428.68 2177.17,2436.43 2190.43,2445.95C2203.68,2455.47 2214.6,2467.14 2223.19,2480.96C2231.78,2494.77 2236.07,2511.95 2236.07,2532.48C2236.07,2556.38 2231.31,2577.2 2221.79,2594.93C2212.27,2612.67 2199.76,2627.41 2184.26,2639.18C2168.77,2650.94 2151.31,2659.71 2131.9,2665.5C2112.48,2671.29 2092.69,2674.18 2072.53,2674.18ZM2422.19,2674.18C2406.14,2674.18 2390.36,2672.78 2374.87,2669.98C2359.37,2667.18 2344.44,2663.07 2330.06,2657.66C2315.69,2652.24 2302.15,2645.9 2289.46,2638.62C2276.76,2631.34 2265.37,2623.22 2255.29,2614.25L2336.5,2525.76C2345.84,2535.84 2358.25,2544.8 2373.75,2552.65C2389.24,2560.49 2405.2,2564.41 2421.63,2564.41C2429.1,2564.41 2435.92,2563.1 2442.08,2560.49C2448.24,2557.87 2451.32,2553.02 2451.32,2545.93C2451.32,2542.19 2450.29,2539.02 2448.24,2536.4C2446.18,2533.79 2442.54,2531.08 2437.32,2528.28C2432.09,2525.48 2424.9,2522.4 2415.75,2519.04C2406.61,2515.68 2395.12,2511.76 2381.31,2507.28C2367.87,2502.8 2354.99,2497.48 2342.66,2491.32C2330.34,2485.16 2319.42,2477.6 2309.9,2468.64C2300.38,2459.67 2292.82,2448.94 2287.22,2436.43C2281.62,2423.92 2278.82,2408.89 2278.82,2391.35C2278.82,2366.7 2283.86,2345.79 2293.94,2328.62C2304.02,2311.44 2316.99,2297.35 2332.86,2286.33C2348.73,2275.32 2366.56,2267.38 2386.35,2262.53C2406.14,2257.67 2425.74,2255.25 2445.16,2255.25C2471.29,2255.25 2497.9,2260.29 2524.97,2270.37C2552.04,2280.45 2575.84,2295.01 2596.38,2314.05L2513.49,2398.63C2504.53,2387.42 2493.51,2378.93 2480.44,2373.14C2467.37,2367.36 2455.61,2364.46 2445.16,2364.46C2435.45,2364.46 2427.61,2365.86 2421.63,2368.66C2415.66,2371.46 2412.67,2376.04 2412.67,2382.38C2412.67,2388.36 2415.75,2392.84 2421.91,2395.83C2428.08,2398.81 2438.06,2402.55 2451.88,2407.03C2466.07,2411.51 2481,2416.74 2496.68,2422.71C2512.37,2428.68 2526.83,2436.43 2540.09,2445.95C2553.34,2455.47 2564.27,2467.14 2572.85,2480.96C2581.44,2494.77 2585.74,2511.95 2585.74,2532.48C2585.74,2556.38 2580.97,2577.2 2571.45,2594.93C2561.93,2612.67 2549.42,2627.41 2533.93,2639.18C2518.43,2650.94 2500.98,2659.71 2481.56,2665.5C2462.15,2671.29 2442.36,2674.18 2422.19,2674.18Z" style="fill:rgb(16,89,128);fill-rule:nonzero;"/>
        </g>
        <g transform="matrix(1.9739,0,0,1.9739,-1539.4,1128.94)">
            <text x="931.37px" y="452.692px" style="font-family:'AvenirNext-Heavy', 'Avenir Next', sans-serif;font-weight:900;font-size:70.141px;fill:rgb(16,89,128);">T<tspan x="1106.72px 1290.07px 1477.77px 1637.13px 1825.88px 1985.24px 2173.99px " y="452.692px 452.692px 452.692px 452.692px 452.692px 452.692px 452.692px ">RAINING</tspan></text>
        </g>
    </g>
</svg>
